<?xml version="1.0" encoding="utf-8"?>
<!-- Generator: Adobe Illustrator 24.3.0, SVG Export Plug-In . SVG Version: 6.00 Build 0)  -->
<svg version="1.1" id="Capa_1" xmlns="http://www.w3.org/2000/svg" xmlns:xlink="http://www.w3.org/1999/xlink" x="0px" y="0px"
	 viewBox="0 0 500 455.3" style="enable-background:new 0 0 500 455.3;" xml:space="preserve">
<style type="text/css">
	.st0{fill:#E5C34D;}
	.st1{fill:#003A70;}
	.st2{fill:#B5B5C6;}
	.st3{fill:#E4E4D7;}
	.st4{fill:#FFFFFF;}
	.st5{fill:#71CC98;}
	.st6{fill:#007D8A;}
	.st7{fill:#91835C;}
	.st8{fill:#F8E08E;}
	.st9{fill:#E5A977;}
	.st10{fill:#D47147;}
	.st11{fill:#E8A362;}
	.st12{fill:#241E1E;}
	.st13{fill:#231F1E;}
	.st14{fill:#B1603F;}
	.st15{fill:#41392E;}
	.st16{fill:#2D2825;}
	.st17{fill:#D1A683;}
	.st18{fill:#F8CACA;}
	.st19{fill:#CC878C;}
	.st20{fill:#F4A7AF;}
	.st21{fill:#3A2218;}
	.st22{fill:#74D56E;}
	.st23{fill:#408E38;}
	.st24{fill:#002A00;}
	.st25{fill:#967157;}
	.st26{fill:#2C140A;}
	.st27{fill:#CCA285;}
	.st28{fill:#825B40;}
	.st29{fill:#E73E37;}
	.st30{fill:#AC202D;}
	.st31{fill:#F39200;}
	.st32{fill:#CC3333;}
	.st33{fill:#DF342D;}
</style>
<g>
	<path class="st15" d="M359.6,322.5c-16.3,0-32.7,0-49,0c-18,0-36,0-54.1,0c-18.1,0-36.1,0-54.2,0c-17,0-33.9,0-50.9,0
		c-14.2,0-28.5,0-42.7,0c-10,0-20,0-30.1,0c0-1.6,0-3.2,0-4.8c0-16.4,0-32.7,0-49.1c0-19.4,0-38.9,0-58.3c0-15.7,0-31.5,0-47.2
		c0-8.3-0.3-16.7,0.2-25c0.1-2.5,0.4-5.1,0.7-7.6c1.5-9.9,4.2-19.6,7.9-28.9c4-9,8.9-17.4,14.8-25.3c6.1-7.6,13-14.5,20.5-20.5
		c7.9-5.9,16.3-10.8,25.3-14.8c9.2-3.7,18.8-6.3,28.6-7.8c7.5-0.9,15-0.9,22.5-0.9c9.8,0,19.5,0,29.3,0c12.7,0,25.5,0,38.2,0
		c10.4,0,20.8,0,31.3,0c6.9,0,13.8-0.1,20.7,0.5c1.4,0.1,2.8,0.3,4.3,0.4c9.9,1.5,19.6,4.2,28.9,7.9c9,4,17.4,8.9,25.3,14.8
		c7.6,6.1,14.5,13,20.5,20.5c5.9,7.9,10.8,16.3,14.8,25.3c3.7,9.2,6.3,18.8,7.9,28.7c1.1,9.6,0.9,19.1,0.9,28.8
		c0,14.9,0,29.8,0,44.6c0,19.3,0,38.7,0,58c0,17.1,0,34.1,0,51.2c0,3.2,0,6.4,0,9.6c-7.1,0-14.1,0-21.2,0
		C386.6,322.5,373.1,322.5,359.6,322.5z"/>
	<g>
		<path class="st16" d="M159.3,206.3c7.6-8.6,7.8-20,10.8-30.4c6.9-24.8,32.4-45.7,61.6-50.6c29.3-4.9,60.7,6.5,76.1,27.6
			c8.7,11.8,12.5,25.9,20,38.3c12.7,21,36.5,36.6,63.7,41.7c20.5,3.9,43.2,2.2,61.6,10.6c14.7,6.7,24.6,18.9,34,30.7
			c5,6.3,10,12.7,12.1,20.1c2,7.4,0.3,16.2-6.5,21.5c-12.5,9.7-34.8,3.2-46.7,13.5c-5.9,5.1-7.1,12.7-8.4,19.6
			c-4.3,22.2-16.6,47-41.8,54c-20.8,5.8-42.4-2.6-64-3.6c-24.6-1.1-48.7,7.7-70.4,18.3c-21.8,10.6-42.4,23.2-65.6,31.1
			c-13.9,4.8-29,7.7-43.6,6c-11.8-1.4-22.6-5.9-32.9-10.6c-11.7-5.3-23.2-11.1-34.4-17.3c-5.7-3.1-11.5-6.5-15-11.5
			c-5.2-7.3-4.6-16.7-5.3-25.4c-1.7-21.4-13-41.8-31-56.1c-13-10.4-30.6-19.4-33.2-34.6c-2-11.6,5.5-23.1,14.2-32.5
			c10.7-11.6,24-22,40.1-27c11.8-3.6,24.4-4.2,36.7-6.2C110.8,230.4,137.9,224.1,159.3,206.3z"/>
	</g>
	<g>
		
			<rect x="183" y="281.7" transform="matrix(0.9768 -0.2141 0.2141 0.9768 -58.9181 48.5425)" class="st17" width="23.3" height="29.1"/>
		<path class="st18" d="M227,185.7c-2.2-1-4.3,0.1-5.6,1.2c-1.3,1.2-17.2,17.9-18.7,18.9c-1.5,1-5.8,1.3-8.6-1.4
			c-2.8-2.7-18.5,1.9-18.5,1.9s-16.2,2.5-17.6,6c-1.4,3.6-5.4,5.1-7.2,4.9c-1.8-0.3-23.3-8.8-24.9-9.4s-4.1-0.6-5.6,1.2
			c-1.6,1.9-3.6,6.5-0.6,11.2c3,4.8,20,12.6,26,15.4c6.1,2.8,9.2,25.2,9.7,35.1c0.4,9.9-2.4,14.9,1.9,17.7
			c4.3,2.8,20.2-0.1,35.6-3.5c15.4-3.4,31.1-7.5,33.8-11.8c2.8-4.3-1.9-7.6-5.7-16.8s-10.3-30.9-5.9-36c4.3-5.1,16.5-19.3,17.2-24.9
			C233,190.1,229.2,186.7,227,185.7z"/>
		<path class="st18" d="M208,122.6c-2.3,5-4.1,8.1-7.2,8.5c-3.1,0.5-10.7,2-17.7,13.1c-5.6-1.4-11.8-1.2-21,0.8
			c-9.2,2-14.8,4.4-19.4,8.1c-11-7.2-18.6-5.4-21.6-4.5c-3,0.9-5.9-1.2-10.1-4.8c-3.3,19.3,2.8,33.3,20.1,37.9
			c3.3,22.8,14.9,29.5,24.6,33.5l4.7-1l16.1-3.5l16.1-3.5l4.7-1c7.2-7.7,14.9-18.7,8.4-40.8C219.3,154,219.1,138.9,208,122.6z"/>
		<path class="st19" d="M179.1,183.1c-3-0.7-6.4,1.1-7.9,3.4c-2.3-1.4-6.1-1.7-8.6,0.2c-2.4,1.9-2.2,4.2-1.1,7.5
			c1.1,3.5,8.7,11,13.5,10c4.8-1.1,8.6-11.1,8.1-14.7C182.8,186,182.1,183.8,179.1,183.1z"/>
		<path class="st20" d="M178.5,183.8c-2.8-0.7-5.9,1-7.2,3.2c-2.1-1.4-5.7-1.7-7.9,0.1c-2.2,1.8-1.9,4.1-0.9,7.3
			c1.1,3.4,8.2,10.9,12.6,9.9c4.4-1,7.7-10.7,7.3-14.3C182,186.7,181.3,184.5,178.5,183.8z"/>
		<ellipse transform="matrix(0.9768 -0.2141 0.2141 0.9768 -35.2756 37.952)" class="st21" cx="157.5" cy="181.8" rx="3" ry="5.5"/>
		<path class="st21" d="M168,194.2l-1.5,0.3c-0.5,0.1-0.9-0.2-1-0.6l-0.7-3.1c-0.1-0.5,0.2-0.9,0.6-1l1.5-0.3c0.5-0.1,0.9,0.2,1,0.6
			l0.7,3.1C168.7,193.7,168.4,194.1,168,194.2z"/>
		
			<ellipse transform="matrix(0.9768 -0.2141 0.2141 0.9768 -33.5842 42.9937)" class="st21" cx="181.7" cy="176.5" rx="3" ry="5.5"/>
		<path class="st21" d="M177.4,192.1l1.5-0.3c0.5-0.1,0.7-0.5,0.6-1l-0.7-3.1c-0.1-0.5-0.5-0.7-1-0.6l-1.5,0.3
			c-0.5,0.1-0.7,0.5-0.6,1l0.7,3.1C176.5,192,176.9,192.2,177.4,192.1z"/>
	</g>
	<g>
		
			<rect x="293.6" y="288.4" transform="matrix(0.969 0.2472 -0.2472 0.969 83.6749 -66.1593)" class="st17" width="23.3" height="23.3"/>
		<path class="st22" d="M387.7,211.3c-1.6-2.1-4.1-2-5.9-1.5s-24.9,9.2-26.9,9.5c-1.9,0.2-6.1-1.6-7.4-5.5
			c-1.3-3.9-18.4-7.1-18.4-7.1s-16.5-5.4-19.6-2.6c-3,2.8-7.6,2.4-9.2,1.3c-1.6-1.1-17.7-19.9-19-21.2c-1.3-1.3-3.5-2.6-5.9-1.5
			c-2.4,1.1-6.5,4.6-6,10.7c0.5,6.1,12.8,22,17.2,27.6c4.4,5.7-3.5,29.1-7.9,39c-4.4,9.9-9.5,13.4-6.7,18.2
			c2.7,4.8,19.2,9.7,35.3,13.8c16.2,4.1,33,7.7,37.6,4.8c4.7-2.9,1.9-8.4,2.8-19.2c0.9-10.8,5.2-35.1,11.8-38s24.9-10.9,28.3-16.1
			C391.3,218.5,389.3,213.4,387.7,211.3z"/>
		<path class="st22" d="M368.2,176.4c1.9-2,3.5-5,4.4-8.4c1.9-7.5-0.4-14.5-5.1-15.7c-4.7-1.2-10.1,3.9-12,11.4
			c-0.1,0.5-0.2,1-0.3,1.5c-4.2-2.4-8.9-4.4-14-5.7c-5.1-1.3-10.2-1.9-15-1.7c0.2-0.5,0.3-1,0.5-1.5c1.9-7.5-0.4-14.5-5.1-15.7
			c-4.7-1.2-10.1,3.9-12,11.4c-0.9,3.4-0.9,6.7-0.1,9.5c-7.4,3.3-12.7,8.8-14.5,15.8c-3.9,15.3,10.5,32.2,32.2,37.7
			s42.4-2.4,46.3-17.6C375.2,190.2,373.1,182.8,368.2,176.4z"/>
		<path class="st23" d="M351.5,194.2c-2.1,0-4.2-0.1-6.2-0.4c-4.1-0.5-6.9-0.7-12.3-2.1c-5.4-1.4-7.9-2.5-11.8-4.1
			c-1.9-0.7-3.9-1.6-5.7-2.6c-1.8-1-3.5-2.2-5-3.8c1.1,1.8,2.6,3.4,4.3,4.8c1.7,1.4,3.5,2.6,5.4,3.7c3.8,2.1,8.3,4.2,12,5.2
			s8.6,1.2,13,1.2c2.2-0.1,4.3-0.2,6.5-0.6c2.1-0.4,4.2-1,6.1-2.1C355.7,193.9,353.6,194.1,351.5,194.2z"/>
		
			<ellipse transform="matrix(0.2472 -0.969 0.969 0.2472 90.5771 423.9312)" class="st24" cx="318.1" cy="153.7" rx="5.1" ry="3.2"/>
		
			<ellipse transform="matrix(0.2472 -0.969 0.969 0.2472 113.8399 477.359)" class="st24" cx="364.1" cy="165.4" rx="5.1" ry="3.2"/>
	</g>
	<g>
		<rect x="241.7" y="266.4" class="st17" width="23.3" height="41.7"/>
		<path class="st25" d="M308.1,180c-1.9-1.5-4.3-0.9-5.7,0c-1.5,0.9-20.6,13.8-22.3,14.5c-1.7,0.6-6,0-8.1-3.2
			c-2.1-3.2-18.5-2.1-18.5-2.1c0,0-16.4-1.1-18.5,2.1c-2.1,3.2-6.4,3.8-8.1,3.2c-1.7-0.6-20.9-13.6-22.3-14.5
			c-1.5-0.9-3.8-1.5-5.7,0c-1.9,1.5-4.9,5.5-3,10.9c1.9,5.3,16.8,16.6,22.1,20.6c5.3,4,3.6,26.6,1.9,36.4c-1.7,9.8-5.5,14-1.9,17.7
			c3.6,3.6,19.8,4.3,35.5,4.3l0,0l0,0l0,0l0,0c15.8,0,31.9-0.6,35.5-4.3c3.6-3.6-0.2-7.9-1.9-17.7c-1.7-9.8-3.4-32.4,1.9-36.4
			c5.3-4,20.2-15.3,22.1-20.6C313,185.5,310,181.5,308.1,180z"/>
		<path class="st25" d="M297.4,129.8c-5.3-6.5-7.8-7.6-11.2-7.5c-3.3,0.1-4.5,4.5-7.1,11.9c-6.5-6.3-15-10.7-24.5-11
			c-0.4,0-0.8,0-1.2,0c-0.4,0-0.8,0-1.2,0c-9.5,0.3-18,4.7-24.5,11c-2.6-7.5-3.9-11.9-7.1-11.9c-3.4-0.1-5.9,1-11.2,7.5
			c-4.9,6.1-6.2,9.5-4.8,12.4c1.5,3.1,8.4,4.2,13.8,4.4c-2.8,5.4-4.4,11.1-4.4,16.3c0,10.3,10.4,36.3,39.4,37
			c29-0.7,39.4-26.7,39.4-37c0-5.2-1.6-10.9-4.4-16.3c5.4-0.2,12.3-1.3,13.8-4.4C303.7,139.3,302.3,135.9,297.4,129.8z"/>
		<ellipse class="st26" cx="242.7" cy="161.6" rx="2.9" ry="3.2"/>
		<path class="st27" d="M280.4,135.5c0.8-1.8,1.6-3.6,2.4-5.3c0.8-1.7,1.8-3.6,3.3-3.5c1.8-0.1,3.4,0.7,4.7,1.9
			c1.4,1.2,2.6,2.7,3.8,4.2c1.2,1.5,2.4,3,3.2,4.7c0.4,0.8,0.7,1.6,0.8,2.5c0.1,0.8-0.2,1.7-0.6,2.2c-1.1,1.2-3.1,1.7-4.9,2.1
			c-1.9,0.4-3.8,0.6-5.7,0.8c1.9,0.2,3.9,0.2,5.9,0c1-0.1,2-0.3,2.9-0.5c1-0.3,2-0.7,2.8-1.5c0.9-0.9,1.1-2.1,1.1-3.2
			c0-1.1-0.4-2.2-0.8-3.1c-0.9-1.9-2.1-3.4-3.3-5c-1.2-1.5-2.5-3-4.1-4.4c-0.8-0.7-1.7-1.3-2.7-1.6c-1-0.4-2.1-0.5-3.2-0.4
			c-1.2,0-2.3,0.9-2.8,1.8c-0.6,0.9-0.9,1.8-1.3,2.8C281.3,131.7,280.8,133.6,280.4,135.5z"/>
		<path class="st28" d="M253.4,165.9c-4.4,0-12,2.8-12,7.1c0,4.3,5.5,11.9,12,11.9s12-7.6,12-11.9
			C265.4,168.7,257.8,165.9,253.4,165.9z"/>
		<ellipse class="st26" cx="264.2" cy="161.6" rx="2.9" ry="3.2"/>
		<path class="st26" d="M261.8,172.5c-0.3,0-0.6,0.2-0.7,0.6c-0.2,2.7-4,6.7-7.3,7v-9.6c0.9-0.2,2.6-1.3,3.6-2.7
			c1.1-1.6-1.4-2.4-3.9-2.4c-2.5,0-5.1,0.8-3.9,2.4c1,1.4,2.6,2.4,3.6,2.7v9.6c-3.3-0.3-7.2-4.3-7.3-7c0-0.3-0.3-0.6-0.7-0.6
			c-0.3,0-0.6,0.3-0.6,0.7c0.2,3.4,4.9,8.2,8.9,8.2c4.1,0,8.7-4.8,8.9-8.2C262.4,172.8,262.1,172.5,261.8,172.5z"/>
		<path class="st27" d="M226.4,135.5c-0.8-1.8-1.6-3.6-2.4-5.3c-0.8-1.7-1.8-3.6-3.3-3.5c-1.8-0.1-3.4,0.7-4.7,1.9
			c-1.4,1.2-2.6,2.7-3.8,4.2c-1.2,1.5-2.4,3-3.2,4.7c-0.4,0.8-0.7,1.6-0.8,2.5c-0.1,0.8,0.2,1.7,0.6,2.2c1.1,1.2,3.1,1.7,4.9,2.1
			c1.9,0.4,3.8,0.6,5.7,0.8c-1.9,0.2-3.9,0.2-5.9,0c-1-0.1-2-0.3-2.9-0.5c-1-0.3-2-0.7-2.8-1.5c-0.9-0.9-1.1-2.1-1.1-3.2
			c0-1.1,0.4-2.2,0.8-3.1c0.9-1.9,2.1-3.4,3.3-5c1.2-1.5,2.5-3,4.1-4.4c0.8-0.7,1.7-1.3,2.7-1.6c1-0.4,2.1-0.5,3.2-0.4
			c1.2,0,2.3,0.9,2.8,1.8c0.6,0.9,0.9,1.8,1.3,2.8C225.5,131.7,226,133.6,226.4,135.5z"/>
	</g>
	<g>
		<g>
			<path class="st29" d="M143.7,81l-44.3,151v7.8l15.7,98.6c-3.5,3.7-5,3.5-7,3.5c-2,0-6.3-3.1-11.7-3.1s-4.3,7.3-12,7.3
				c-7.7,0-5.8-3.7-9-3.7V74.2c4.9-8.1,10.7-15.7,17.1-22.7c4-4.3,8.2-8.3,12.7-12.1l15,5L143.7,81z"/>
			<g>
				<g>
					<path class="st30" d="M106.9,341.8L94.5,237.1l37.6-155.2l-8.4-2L93.6,237l0,0.1l0,0.1l6.3,102.2
						C102.9,340,105.2,341.2,106.9,341.8z"/>
				</g>
				<g>
					<path class="st30" d="M98.5,149.6c2.2-14.7,4.4-29.3,6.7-43.9c2.4-14.6,4.7-29.2,7.4-43.8l-9-1.2c-1.1,14.8-2.5,29.6-3.8,44.3
						c-1.4,14.8-2.9,29.5-4.5,44.2c-1.5,14.7-3.2,29.5-4.8,44.2l-5.2,44.1l0,0l0,0l1.1,27.4c0.3,9.1,0.7,18.3,0.9,27.4
						c0.3,9.1,0.4,18.3,0.5,27.4c0.1,8.6,0.2,17.2,0.1,25.8c2-0.9,3-2.6,4.1-4.1c-0.6-7.3-1.2-14.5-1.7-21.8
						c-0.6-9.1-1.2-18.2-1.7-27.4c-0.6-9.1-0.9-18.2-1.4-27.4l-1.1-27.3l6-44C94.2,178.9,96.3,164.2,98.5,149.6z"/>
				</g>
				<path class="st30" d="M86.5,159l-1.3,37.2l-1.1,37.2c-0.1,1.6-0.1,3.1-0.2,4.7l-0.3,4.6l-0.7,9.3c-0.4,6.2-0.9,12.4-1.2,18.6
					c-1.5,24.6-2.8,49.2-3.2,74c-1.1-1-1.3-2.1-3-2.1v-12c2.2-19.9,3.9-39.9,5.4-59.9c0.5-6.2,0.9-12.4,1.3-18.6l0.6-9.3l0.3-4.6
					c0.1-1.5,0.1-3.1,0.1-4.7l0.4-37.2l0.2-37.3l0-37.3c-0.1-19.7-0.2-39.3-0.6-59c2.6-3.5,5.4-6.9,8.4-10.2
					C90.1,75.6,89,98.7,88,121.8L86.5,159z"/>
			</g>
			<path class="st31" d="M75.4,233.9c2.7,1.5,9.9,1.9,13.4,1.9s9.7-3.2,10.5-3.7c0.9-0.5,0.4,2.5,0.4,4.2s0.4,3.3-0.4,3.6
				c-0.8,0.4-6.4,2.5-10.5,2.5s-9.8-0.5-13.4-2.2V233.9z"/>
		</g>
		<g>
			<path class="st30" d="M143.3,95.1c-18.7,0-41.4-11.6-56.4-37.1c1.8-2.2,3.7-4.3,5.6-6.4c7.8-8.4,16.6-15.8,26.2-22.1h92.4
				C199.5,75,167.9,95.1,143.3,95.1z"/>
			<path class="st32" d="M143.3,89.3c-17.8,0-39.5-10.8-53.5-34.7c0.9-1,1.8-2.1,2.8-3.1c7.8-8.4,16.6-15.8,26.2-22.1h88.5
				C196.2,71,166.5,89.3,143.3,89.3z"/>
			<g>
				<path class="st30" d="M128.2,56.2c5,1.2,10,1.9,15.1,1.8c5.1,0,10.1-0.7,15.1-1.9c5-1.2,9.8-2.9,14.4-5.2
					c9.1-4.6,17.2-11.8,21.9-21.5c-1.8,5-4.8,9.6-8.4,13.6c-3.6,3.9-7.9,7.2-12.6,9.8c-9.3,5.2-19.8,7.8-30.4,7.9
					c-10.6-0.1-21.1-2.8-30.4-7.9c-4.5-2.5-8.7-5.6-12.2-9.4c0.3-0.3,0.7-0.6,1-0.9c3.7,3.4,7.8,6.2,12.2,8.4
					C118.4,53.3,123.3,55,128.2,56.2z"/>
				<path class="st30" d="M124.4,70.5c6.1,2.1,12.5,3.4,18.9,3.4c6.4,0,12.8-1.3,18.9-3.4c6.1-2.1,11.9-5.3,17.2-9.2
					c5.3-3.9,10-8.7,13.9-14.1c4-5.4,7.1-11.4,9.6-17.8c-1.8,6.6-4.6,13-8.2,18.8c-3.7,5.8-8.3,11-13.7,15.3
					c-10.7,8.6-24,13.7-37.7,13.9c-13.7-0.2-27.1-5.3-37.7-13.9c-4.6-3.7-8.7-8.1-12.1-13c0.4-0.5,0.9-0.9,1.3-1.4
					c3.6,4.6,7.8,8.7,12.4,12.2C112.5,65.2,118.3,68.4,124.4,70.5z"/>
				<path class="st30" d="M122.3,41.3c6.8,2.2,13.9,3.3,21,3.3c7.1,0,14.2-1.1,21-3.3c3.4-1.1,6.7-2.6,9.7-4.5
					c3-1.9,5.8-4.3,7.9-7.4c-1.8,3.3-4.5,5.9-7.4,8.1c-3,2.1-6.3,3.7-9.7,5c-6.8,2.5-14.1,3.7-21.4,3.8c-7.3,0-14.5-1.2-21.4-3.8
					c-3.4-1.3-6.7-2.9-9.7-5c-0.8-0.6-1.6-1.2-2.3-1.8c0.2-0.1,0.3-0.3,0.5-0.4c0.7,0.5,1.5,1.1,2.2,1.5
					C115.7,38.8,119,40.2,122.3,41.3z"/>
			</g>
		</g>
		<g>
			<path class="st29" d="M357.2,81l44.3,151v7.8l-15.7,98.6c3.5,3.7,5,3.5,7,3.5c2,0,6.3-3.1,11.7-3.1s4.3,7.3,12,7.3
				c7.7,0,5.8-3.7,9-3.7V74.2c-4.9-8.1-10.7-15.7-17.1-22.7c-4-4.3-8.2-8.3-12.7-12.1l-15,5L357.2,81z"/>
			<g>
				<g>
					<path class="st30" d="M394,341.8l12.4-104.7L368.8,81.9l8.4-2l30,157.1l0,0.1l0,0.1l-6.3,102.2C398,340,395.6,341.2,394,341.8z
						"/>
				</g>
				<g>
					<path class="st30" d="M402.4,149.6c-2.2-14.7-4.4-29.3-6.7-43.9c-2.4-14.6-4.7-29.2-7.4-43.8l9-1.2c1.1,14.8,2.5,29.6,3.8,44.3
						c1.4,14.8,2.9,29.5,4.5,44.2c1.5,14.7,3.2,29.5,4.8,44.2l5.2,44.1l0,0l0,0l-1.1,27.4c-0.3,9.1-0.7,18.3-0.9,27.4
						c-0.3,9.1-0.4,18.3-0.5,27.4c-0.1,8.6-0.2,17.2-0.1,25.8c-2-0.9-3-2.6-4.1-4.1c0.6-7.3,1.2-14.5,1.7-21.8
						c0.6-9.1,1.2-18.2,1.7-27.4c0.6-9.1,0.9-18.2,1.4-27.4l1.1-27.3l-6-44C406.6,178.9,404.6,164.2,402.4,149.6z"/>
				</g>
				<path class="st30" d="M414.4,159l1.3,37.2l1.1,37.2c0.1,1.6,0.1,3.1,0.2,4.7l0.3,4.6l0.7,9.3c0.4,6.2,0.9,12.4,1.2,18.6
					c1.5,24.6,2.8,49.2,3.2,74c1.1-1,1.3-2.1,3-2.1v-12c-2.2-19.9-3.9-39.9-5.4-59.9c-0.5-6.2-0.9-12.4-1.3-18.6l-0.6-9.3l-0.3-4.6
					c-0.1-1.5-0.1-3.1-0.1-4.7l-0.4-37.2L417,159l0-37.3c0.1-19.7,0.2-39.3,0.6-59c-2.6-3.5-5.4-6.9-8.4-10.2
					c1.5,23.1,2.6,46.2,3.6,69.3L414.4,159z"/>
			</g>
			<path class="st31" d="M425.4,233.9c-2.7,1.5-9.9,1.9-13.4,1.9c-3.5,0-9.7-3.2-10.5-3.7c-0.9-0.5-0.4,2.5-0.4,4.2
				s-0.4,3.3,0.4,3.6c0.8,0.4,6.4,2.5,10.5,2.5s9.8-0.5,13.4-2.2V233.9z"/>
		</g>
		<g>
			<path class="st30" d="M357.6,95.1c18.7,0,41.4-11.6,56.4-37.1c-1.8-2.2-3.7-4.3-5.6-6.4c-7.8-8.4-16.6-15.8-26.2-22.1h-92.4
				C301.4,75,333,95.1,357.6,95.1z"/>
			<path class="st32" d="M357.6,89.3c17.8,0,39.5-10.8,53.5-34.7c-0.9-1-1.8-2.1-2.8-3.1c-7.8-8.4-16.6-15.8-26.2-22.1h-88.5
				C304.7,71,334.4,89.3,357.6,89.3z"/>
			<g>
				<path class="st30" d="M372.7,56.2c-5,1.2-10,1.9-15.1,1.8c-5.1,0-10.1-0.7-15.1-1.9c-5-1.2-9.8-2.9-14.4-5.2
					c-9.1-4.6-17.2-11.8-21.9-21.5c1.8,5,4.8,9.6,8.4,13.6c3.6,3.9,7.9,7.2,12.6,9.8c9.3,5.2,19.8,7.8,30.4,7.9
					c10.6-0.1,21.1-2.8,30.4-7.9c4.5-2.5,8.7-5.6,12.2-9.4c-0.3-0.3-0.7-0.6-1-0.9c-3.7,3.4-7.8,6.2-12.2,8.4
					C382.4,53.3,377.6,55,372.7,56.2z"/>
				<path class="st30" d="M376.5,70.5c-6.1,2.1-12.5,3.4-18.9,3.4c-6.4,0-12.8-1.3-18.9-3.4c-6.1-2.1-11.9-5.3-17.2-9.2
					c-5.3-3.9-10-8.7-13.9-14.1c-4-5.4-7.1-11.4-9.6-17.8c1.8,6.6,4.6,13,8.2,18.8c3.7,5.8,8.3,11,13.7,15.3
					c10.7,8.6,24,13.7,37.7,13.9c13.7-0.2,27.1-5.3,37.7-13.9c4.6-3.7,8.7-8.1,12.1-13c-0.4-0.5-0.9-0.9-1.3-1.4
					c-3.6,4.6-7.8,8.7-12.4,12.2C388.4,65.2,382.6,68.4,376.5,70.5z"/>
				<path class="st30" d="M378.5,41.3c-6.8,2.2-13.9,3.3-21,3.3c-7.1,0-14.2-1.1-21-3.3c-3.4-1.1-6.7-2.6-9.7-4.5
					c-3-1.9-5.8-4.3-7.9-7.4c1.8,3.3,4.5,5.9,7.4,8.1c3,2.1,6.3,3.7,9.7,5c6.8,2.5,14.1,3.7,21.4,3.8c7.3,0,14.5-1.2,21.4-3.8
					c3.4-1.3,6.7-2.9,9.7-5c0.8-0.6,1.6-1.2,2.3-1.8c-0.2-0.1-0.3-0.3-0.5-0.4c-0.7,0.5-1.5,1.1-2.2,1.5
					C385.2,38.8,381.9,40.2,378.5,41.3z"/>
			</g>
		</g>
		<path class="st30" d="M150.2,29.5c17.2,56.8,63.8,81.8,100,81.8s82.8-25.1,100-81.8H150.2z"/>
		<g>
			<path class="st33" d="M161.1,29.5c15.4,53.7,56.8,77.5,89.1,77.5s73.8-23.7,89.1-77.5H161.1z"/>
			<path class="st30" d="M167.1,29.5c3.6,8.6,8.1,16.6,13.8,23.6c5.6,7.1,12.3,13.2,19.7,18.1c7.4,4.9,15.4,8.9,23.8,11.5
				c8.4,2.7,17.1,4.2,25.8,4.2c8.7,0,17.5-1.5,25.8-4.2c8.4-2.6,16.4-6.5,23.8-11.5c7.4-5,14.1-11.1,19.7-18.1
				c5.7-7,10.3-15.1,13.8-23.6c-2.6,8.9-6.7,17.4-12,25.1c-5.4,7.6-12,14.3-19.5,19.8c-15,11-33.2,17.2-51.7,17.4
				c-18.5-0.2-36.7-6.4-51.7-17.4c-7.5-5.5-14.1-12.2-19.5-19.8C173.8,46.9,169.7,38.4,167.1,29.5z"/>
			<path class="st30" d="M178.6,29.5c3.4,6.5,8,12.1,13.3,16.7c5.3,4.7,11.4,8.4,17.7,11.3c6.4,2.9,13,5.1,19.9,6.6
				c6.8,1.5,13.8,2.3,20.7,2.3c6.9,0,13.9-0.8,20.7-2.3c6.8-1.4,13.5-3.7,19.9-6.6c6.3-2.9,12.4-6.6,17.7-11.3
				c5.4-4.6,9.9-10.3,13.3-16.7c-2.7,6.8-7,12.9-12.2,18.1c-5.2,5.1-11.3,9.3-17.7,12.6c-12.9,6.5-27.3,9.8-41.7,9.9
				c-14.4-0.1-28.8-3.4-41.7-9.9c-6.5-3.3-12.5-7.4-17.7-12.5C185.6,42.4,181.3,36.3,178.6,29.5z"/>
			<path class="st30" d="M196.5,29.5c3,4.1,6.9,7.3,11.2,9.7c4.3,2.5,8.9,4.3,13.6,5.7c4.7,1.4,9.5,2.5,14.4,3.1
				c4.8,0.7,9.7,1.1,14.6,1.1c4.9,0,9.8-0.4,14.6-1.1c4.9-0.7,9.7-1.7,14.4-3.1c4.7-1.4,9.3-3.2,13.6-5.7c4.3-2.4,8.2-5.6,11.2-9.7
				c-2.6,4.4-6.5,7.9-10.7,10.6c-4.2,2.8-8.9,4.8-13.6,6.5c-9.5,3.2-19.5,4.7-29.5,4.8c-10-0.1-20-1.6-29.5-4.8
				c-4.7-1.6-9.4-3.7-13.6-6.4C203,37.3,199.1,33.9,196.5,29.5z"/>
		</g>
	</g>
	<path class="st16" d="M449.6,112.7c-5.6-24.6-18.1-47.6-35.2-66.1c-17.1-18.6-39.2-32.3-63.3-39.9c-15.8-5-32.3-6.6-48.8-6.6
		c-13.3,0-26.7,0-40,0c-16.4,0-32.7,0-49.1,0c-9.1,0-18.3-0.3-27.5,0.2c-25.6,1.2-51,9-72.5,23C92.5,36.9,74.8,55.8,63.3,78
		c-10.9,21-16.7,44.3-16.7,67.9c0,6.5,0,13,0,19.5c0,13.9,0,27.8,0,41.7c0,17,0,34,0,51c0,15.6,0,31.3,0,46.9c0,9.8,0,19.6,0,29.4
		c0,1.4,0,2.7,0,4.1c0,8.7,7.4,16.1,16.1,16.1c3.4,0,6.7,0,10.1,0c2,0,3.9,0,5.9,0v-81.2h0.1c0-1.6,0-3.2,0-4.8
		c0-19.4,0-38.9,0-58.3c0-15.7,0-31.5,0-47.2c0-8.3-0.3-16.7,0.2-25c0.1-2.5,0.4-5.1,0.7-7.6c1.5-9.9,4.2-19.6,7.9-28.9
		c4-9,8.9-17.4,14.8-25.3c6.1-7.6,13-14.5,20.5-20.5c7.9-5.9,16.3-10.8,25.3-14.8c9.2-3.7,18.8-6.3,28.6-7.8
		c7.5-0.9,15-0.9,22.5-0.9c9.8,0,19.5,0,29.3,0c12.7,0,25.5,0,38.2,0c10.4,0,20.8,0,31.3,0c6.9,0,13.8-0.1,20.7,0.5
		c1.4,0.1,2.8,0.3,4.3,0.4c9.9,1.5,19.6,4.2,28.9,7.9c9,4,17.4,8.9,25.3,14.8c7.6,6.1,14.5,13,20.5,20.5
		c5.9,7.9,10.8,16.3,14.8,25.3c3.7,9.2,6.3,18.8,7.9,28.7c1.1,9.6,0.9,19.1,0.9,28.8c0,14.9,0,29.8,0,44.6c0,19.3,0,38.7,0,58
		c0,3.9,0,7.8,0,11.7c0,13.2,0,26.3,0,39.5v41.8c0.3,0,0.6,0,0.9,0c4.7,0,9.5,0,14.2,0c0.5-1.9,0.9-3.8,1.3-5.7
		c1.3-6.9,2.5-14.4,8.3-19.5c0-3.5,0-7.1,0-10.6c0-13.4,7.5-23.4,7.5-36.8c0-16.8,0-33.7,0-50.5c0-16,0-32,0-48
		c0-10.6,0-21.3,0-31.9C453.4,138.6,452.5,125.6,449.6,112.7z"/>
</g>
</svg>
