<?xml version="1.0" encoding="utf-8"?>
<!-- Generator: Adobe Illustrator 24.3.0, SVG Export Plug-In . SVG Version: 6.00 Build 0)  -->
<svg version="1.1" id="Capa_1" xmlns="http://www.w3.org/2000/svg" xmlns:xlink="http://www.w3.org/1999/xlink" x="0px" y="0px"
	 viewBox="0 0 500.1 321.1" style="enable-background:new 0 0 500.1 321.1;" xml:space="preserve">
<style type="text/css">
	.st0{fill:#E5C34D;}
	.st1{fill:#003A70;}
	.st2{fill:#B5B5C6;}
	.st3{fill:#E4E4D7;}
	.st4{fill:#FFFFFF;}
	.st5{fill:#71CC98;}
	.st6{fill:#007D8A;}
	.st7{fill:#91835C;}
	.st8{fill:#F8E08E;}
	.st9{fill:#E5A977;}
	.st10{fill:#D47147;}
	.st11{fill:#E8A362;}
	.st12{fill:#241E1E;}
	.st13{fill:#231F1E;}
	.st14{fill:#B1603F;}
	.st15{fill:#41392E;}
	.st16{fill:#2D2825;}
	.st17{fill:#D1A683;}
	.st18{fill:#F8CACA;}
	.st19{fill:#CC878C;}
	.st20{fill:#F4A7AF;}
	.st21{fill:#3A2218;}
	.st22{fill:#74D56E;}
	.st23{fill:#408E38;}
	.st24{fill:#002A00;}
	.st25{fill:#967157;}
	.st26{fill:#2C140A;}
	.st27{fill:#CCA285;}
	.st28{fill:#825B40;}
	.st29{fill:#E73E37;}
	.st30{fill:#AC202D;}
	.st31{fill:#F39200;}
	.st32{fill:#CC3333;}
	.st33{fill:#DF342D;}
</style>
<g>
	<g>
		<path class="st6" d="M414.6,210.8c2.2-16.4,19.1-25.7,35-29.4c15.9-3.6,33.9-5.3,44.9-17.4c4-4.4,6.8-10.6,5.1-16.3
			c-1.3-4.1-4.7-7.2-8-10.1c-12.2-10.7-25.1-25.5-20.5-41c2.9-9.7,12.3-16.8,13.4-26.9c0.7-6-1.7-11.9-4.3-17.3
			c-10.1-21.5-26.7-43.1-50.2-46C414.6,4.6,399.2,11.3,387,21c-12.2,9.7-21.7,22.2-31.8,34c-25,29.2-55.5,55.8-92.6,65.8
			c-2.1,0.6-4.4,1.1-6.4,0.1c-2.7-1.3-3.4-4.6-4.1-7.5c-4-18.8-13.7-36.3-27.6-49.6c-3.3-3.2-7-6.2-11.4-7.6
			c-11.6-3.4-22.8,5.8-30.8,14.8c-21.4,24.1-38.1,52.4-49,82.7c-8,22.4-14.6,48.2-35,60.4c-11.3,6.8-25.3,8.1-36.4,15.3
			c-14.4,9.4-21.5,28.1-18.5,45.1c3,17,15,31.6,30.3,39.6c9.2,4.8,20.3,7.3,30,3.8c8.5-3,14.7-10.1,21.8-15.7
			c11.8-9.4,27-15.2,42-13.4c31,3.7,55.7,37.6,86.3,31.5c19.6-3.9,32.1-23.1,49.6-32.6c20-10.9,45.8-7.9,65.1,4.2
			c7.4,4.7,14.8,10.8,23.6,10.9c5.4,0,10.5-2.4,15.2-5.2c12.3-7.5,23.2-19.9,23.1-34.3c-0.1-10.3-5.7-19.7-9.9-29.2l-2.6-6
			c-1-3.1-1.8-6.3-2.5-9.5C415.4,218.6,414.2,213.5,414.6,210.8z"/>
	</g>
	<path class="st9" d="M383.7,67.6c-0.2,2-0.5,3.9-1,5.7c-0.5,1.8-1,3.5-1.7,5.2c-1.3,3.4-3,6.6-4.9,9.7c-1.9,3.1-4.1,6.1-6.6,8.9
		c-1.2,1.4-2.6,2.8-4,4.1l-1.1,1l-1.1,1c-0.7,0.6-1.5,1.3-2.2,1.8c-2.9,2.4-6,4.6-9.1,6.6c-3.1,2-6.3,4-9.5,5.8
		c-3.3,1.8-6.6,3.5-10.1,5.2c-1.8,0.8-3.6,1.6-5.5,2.3c-1.9,0.8-3.9,1.5-6.3,2.1c-5.4,1.5-11.2-0.9-13-5.2c-1.8-4.2,0.9-8.8,6-10.4
		l0.3-0.1c1.1-0.3,2.4-0.8,3.8-1.4c1.4-0.6,2.8-1.2,4.2-1.9c2.8-1.4,5.6-3,8.4-4.6c2.7-1.6,5.4-3.4,8-5.2c2.5-1.8,5-3.7,7.2-5.6
		c0.5-0.5,1.1-1,1.6-1.4l0.7-0.7l0.7-0.7c0.9-1,1.8-2,2.7-3c1.7-2.1,3.2-4.3,4.5-6.6c1.3-2.3,2.4-4.7,3.2-7c0.4-1.2,0.7-2.3,1-3.5
		c0.2-1.1,0.4-2.2,0.4-3.2c0.3-5.3,5.7-9.4,12.3-9.2c6.5,0.2,11.6,4.7,11.3,10C383.8,67.3,383.8,67.5,383.7,67.6L383.7,67.6z"/>
	<path class="st10" d="M275.7,97.4C275.7,97.4,275.7,97.4,275.7,97.4c-0.9-6-0.8-19.4-2.9-19.4c-1.8,0-11.7,10.7-15.7,23.2
		C263.4,98.1,270.2,96.7,275.7,97.4z"/>
	<path class="st11" d="M330.4,115.2c-0.3-5.5,0.1-8.2-5.8-8.5c-5.9-0.3-18.5,1.5-22.5,1.9c-3.9,0.3-6.6,0.7-8.8-0.5
		c-6.1-2.5-7.9-8.8-16.7-10.5c-1-0.2-2.1-0.3-3.2-0.3c0,0,0,0,0,0c0,0,0,0-0.1,0c-0.2,0-0.4,0-0.6,0c-5.4-0.2-4.9-3.9-4.8-7.3
		c0.1-3.5-0.1-12-2.3-12s-7,7-10.2,13.6c-3.2,6.6-3.9,12.4-6.7,15.2c0,0,0,0,0,0c-0.7,0.6-1.4,1.3-2,1.9c-7.9,8.3-20,26.9-36.9,35.4
		c-16.9,8.4-43.9,8.8-75,11.1c-31.1,2.2-41,12.6-43.5,26.7c-2.5,14.1,3.2,20.7-9.3,35.1c-6.9,8-19.6,15.1-32.2,21.6
		c-12.6,6.5-14.4,10.1-12.4,13.7c1.9,3.6,2.1,4.3,3.3,5.8c1.2,1.5,2.3,3.7,7.2,1.8c4.8-1.9,28.6-13.8,37.7-22
		c9.1-8.2,13.1-17.7,18.5-18.5c5.4-0.8,8.3-1.5,7.2,2.5c-1.1,4-6.6,18.2-19.8,26.3c-13.1,8-32.2,12-31.2,15.3s2.5,6.9,4,8.6
		s1.7,2.9,4.8,2.2c3.2-0.7,26.4-8.4,36.8-14.4c10.4-5.9,19.5-20.3,22.7-27.9c3.2-7.6,7.7-15.2,14.6-15.1c6.9,0.1,33.7-2.6,47.8-5.7
		s35.6-10.6,41.2-5.7c5.5,5,17.4,11.7,38.7,19.8c21.3,8,31.8,10.6,38.5,8.4c6.8-2.2,10.8-8.4,4.8-11.3c-5.9-2.9-4.4-0.1-17.7-4
		c-13.3-3.9-36.2-15.1-41.6-20.4c-3.7-3.8-5.4-5.4-4-7.4c0.8-1.3,4.7,0.1,8.3,1.8c3.5,1.6,34.7,12,40.9,13.8
		c6.3,1.8,13.2,4.4,17,2.7c3.8-1.8,4.2-5.8,3.6-7.9c-0.6-2.1-1.8-4.1-5.3-6c-3.5-1.8-11.8-3.1-19.3-5.5c-7.5-2.4-27.1-11.2-30.1-13
		c-3-1.8-3.9-3.2-2.5-6.1c1.3-3,3-8.3,4.1-13c1-4.7,7-7.9,8.6-9.9c1.6-2,5.4-3.6,9.3-4.6c3.9-1,17.6-4.9,27.8-6.4
		c10.2-1.5,12.3-3.5,13.1-6.1C327,127.6,330.6,120.7,330.4,115.2z"/>
	<path class="st12" d="M280.2,117.5c-0.4-0.7-0.8-1.5-1.3-2.2c-0.8-1-1.8-2-3.1-2.3c-0.8-0.1-1.6-0.1-2.3,0.3
		c-0.5,0.3-1,0.8-1.2,1.3c-0.5,0.9-0.7,2-0.8,3.1c-0.1,0.7-0.1,1.4,0,2.2c0,0.9,0.8,1.8,1.8,1.8c0.9,0,1.8-0.8,1.8-1.8
		c0-0.8,0-1.6,0.1-2.4c0-0.3,0.1-0.6,0.2-0.8c0,0,0,0,0,0c0.2,0.2,0.4,0.4,0.6,0.6c0.5,0.6,0.8,1.3,1.2,2c0.5,0.8,1.6,1.2,2.4,0.6
		C280.4,119.4,280.7,118.4,280.2,117.5z"/>
	<path class="st13" d="M330.4,115.2c-0.3-5.5,0.1-8.2-5.8-8.5c-1.5-0.1-3.5,0-5.6,0.1c-0.2,7.1,1.9,9.8,11.4,9.8
		C330.4,116.1,330.4,115.7,330.4,115.2z"/>
	<path class="st10" d="M232.4,125.5L232.4,125.5c-6.3,7.1-13.8,14.2-22.6,18.7c-16.9,8.4-43.9,8.8-75,11.1
		c-4.1,0.3-7.9,0.7-11.3,1.3c1.2,9.1,3.5,22.5,16.6,24.4c13.1,1.8,23.8-6.7,27-9.2c3.2-2.5,9-6.8,15.1-5c6.1,1.8,15.9,2.6,28.2-3.6
		c12.3-6.2,16.7-12,19.6-23.1C232.9,128.8,232.4,125.5,232.4,125.5z"/>
	<path class="st10" d="M91.2,181.9c-0.9,5.2-0.7,9.4-0.7,13.4c5.3-1.8,15.9-4.2,20.4-11.9c4.4-7.6,2.9-18.7,3.3-24.7
		C98.9,163.2,93,171.5,91.2,181.9z"/>
	<path class="st10" d="M47.1,189.1c4.8-2.6,9.2-5.9,13.4-9.4c2.2-1.8,4.3-3.6,6.3-5.5c1.9-1.7,3.7-3.6,5.7-5.2
		c1.2-0.9,2.5-1.7,3.9-2.3c1.1-0.4,2.3-0.7,3.5-1c1.1-0.1,2.2-0.1,3.3,0c1,0.2,1.9,0.4,2.8,0.8c0.9,0.5,1.8,1,2.8,1.5
		c1.5,0.9,3.1,1.8,4.6,2.8c0.5,0.3,0.9,0.6,1.4,0.9c2.1-3.4,5-6.4,9.2-8.9c-2.4-1.5-4.8-3-7.2-4.5c-3.4-2-6.8-4.1-10.7-4.7
		c-2.2-0.3-4.3-0.6-6.5-0.3c-2.3,0.2-4.6,0.6-6.7,1.5c-2.4,1-4.8,2.1-6.9,3.6c-2.1,1.6-4.1,3.3-6,5.1c-3.3,3-6.6,6-10.2,8.8
		c-4.1,3.1-8.4,5.8-13,7.9c-1.4,0.6-2.9,1-4.4,1.3c-1.7,0.2-3.4,0.1-5,0c-3.2-0.5-6.4-1.5-9.4-2.7c-3-1.3-5.8-2.8-8.6-4.4
		c-1.4-0.8-3.2-1.1-4.8-0.6c-1.4,0.4-3,1.5-3.7,2.9c-0.8,1.4-1.1,3.2-0.6,4.8c0.5,1.5,1.4,2.9,2.9,3.7c4,2.2,8.1,4.2,12.3,5.9
		c2.2,0.8,4.4,1.6,6.6,2.1c2.8,0.6,5.6,1,8.5,1c2.8,0,5.8-0.4,8.4-1.3C41.8,191.8,44.5,190.5,47.1,189.1z"/>
	<path class="st10" d="M472.2,204c-16.4-0.4-32.7-0.5-49.1-0.2c-5,0-10.1-0.1-15.1-0.2l3.9-3.4c6.1-5.3,12.2-10.6,18.3-15.9
		l18.4-15.9c0.1-0.1,0.3-0.2,0.4-0.3c1.1-1,2-2,2.9-3.2c7.9-9.3,8.7-17.4,0.9-40.6c-8.7-25.8-22.5-46.8-32.8-57.1
		s-20.4-19.5-38.3-17.5c-17.9,2-27.3,12-22.3,30.9c5,19,22.1,33.3,30.2,52.1c4.1,9.4,7.4,16.9,9.7,21.9c-5.2,4.9-10.5,9.9-15.7,14.9
		l-4.5,4.4l-2.2,2.2l-2.3,2.2c-1.5,1.5-3,3.1-4.6,4.6l-2.4,2.5l-2.2,2.3c-1.5,1.6-3.1,3.3-4.7,5.3c-0.8,1-1.7,2-2.5,3.2
		c-0.9,1.2-1.8,2.4-2.7,3.9c-0.9,1.5-2,3.2-3,5.7c-0.3,0.6-0.5,1.3-0.8,2c-0.1,0.4-0.3,0.8-0.4,1.2l-0.2,0.7
		c-0.1,0.2-0.1,0.4-0.2,0.7c-0.2,0.9-0.4,2-0.6,3.2c-0.1,1.2-0.2,2.6-0.1,4.2c0.1,1.6,0.3,3.3,0.9,5.1c0.5,1.8,1.3,3.7,2.3,5.4
		c1,1.7,2.1,3.1,3.2,4.2c1.1,1.1,2.1,2,3.1,2.7c1,0.7,1.9,1.2,2.7,1.7c0.8,0.4,1.6,0.8,2.3,1.1c1.4,0.6,2.6,1,3.7,1.3
		c2.2,0.6,3.9,0.9,5.5,1.2c1.6,0.2,3.1,0.4,4.4,0.5c2.8,0.2,5.2,0.2,7.6,0.2c1.2,0,2.3,0,3.4-0.1l3.1-0.1l6.1-0.2
		c8.2-0.3,16.4-0.5,24.5-0.5c16.4,0.3,32.7,0.2,49.1-0.2c9.6-0.2,17.4-8,17.6-17.6C490,212.5,482.1,204.2,472.2,204z"/>
	<path class="st9" d="M400.6,76.1c-0.2,2.9-0.6,5.7-1.2,8.3c-0.6,2.6-1.2,5.2-2,7.6c-1.6,4.9-3.5,9.6-5.8,14.1
		c-2.3,4.5-4.9,8.9-7.8,13c-1.5,2.1-3,4.1-4.7,6.1l-1.3,1.5l-1.3,1.4c-0.9,0.9-1.7,1.8-2.6,2.7c-3.5,3.5-7.1,6.7-10.8,9.6
		c-3.7,3-7.4,5.8-11.3,8.4c-3.9,2.7-7.8,5.2-12,7.6c-2.1,1.2-4.3,2.3-6.5,3.4c-2.3,1.1-4.7,2.1-7.5,3.1c-6.4,2.1-13.3-1.3-15.4-7.6
		c-2.1-6.2,1.1-12.9,7.1-15.2l0.4-0.1c1.3-0.5,2.9-1.2,4.5-2.1c1.6-0.9,3.3-1.8,5-2.8c3.4-2,6.7-4.3,9.9-6.7
		c3.3-2.4,6.4-4.9,9.5-7.6c3-2.6,5.9-5.4,8.5-8.1c0.6-0.7,1.3-1.4,1.9-2.1l0.9-1l0.8-1c1.1-1.4,2.2-2.9,3.2-4.4
		c2-3.1,3.8-6.3,5.3-9.7c1.5-3.4,2.8-6.8,3.8-10.3c0.5-1.7,0.9-3.4,1.1-5.1c0.3-1.7,0.4-3.2,0.5-4.7c0.3-7.7,6.8-13.8,14.6-13.5
		c7.7,0.3,13.8,6.8,13.5,14.6C400.6,75.7,400.6,75.8,400.6,76.1L400.6,76.1z"/>
	<ellipse class="st9" cx="342.4" cy="34.1" rx="38.3" ry="34.1"/>
	<path class="st14" d="M395.8,61.5c-2.4-1.6-5.4-2.4-8.3-2.5c-4.4-0.1-8.7,1.5-11.8,4.4c-1.6,1.5-2.8,3.2-3.6,5.2
		c-0.4,0.9-0.7,1.8-0.8,2.7c-0.2,1.2-0.2,2.4-0.4,3.6c0,0.4-0.1,0.8-0.1,1.1c0,0.1,0,0.2,0,0.2c0,0,0,0,0,0c0,0,0,0,0,0
		c0,0.2-0.1,0.4-0.1,0.6c-0.1,0.7-0.3,1.4-0.4,2.1c-0.3,1.2-0.6,2.4-1,3.7c-0.2,0.5,0,1,0.3,1.5c0.4,0.4,0.8,0.6,1.4,0.7
		c0.3,0,0.7,0.1,1,0.1c0.3,0,0.5,0.1,0.8,0.1c0.1,0,0.2,0,0.3,0c0,0,0.2,0,0.3,0c1,0.1,2,0.3,2.9,0.4c1.9,0.3,3.8,0.7,5.7,1.1
		c1.8,0.4,3.5,0.9,5.3,1.5c0.8,0.3,1.6,0.6,2.5,0.9c0.2,0.1,0.4,0.2,0.6,0.2c0.1,0,0.2,0.1,0.2,0.1c0,0,0,0,0,0
		c0.4,0.2,0.8,0.3,1.2,0.5c1.7,0.7,3.3,1.5,4.8,2.4c1,0.6,2.3,0,2.6-1c0.9-2.7,1.7-5.4,2.3-8.1c0.4-1.7,0.7-3.4,0.9-5.1
		c0.2-1.4,0.4-2.9,0.4-4.3C402.9,68.8,400.1,64.2,395.8,61.5z"/>
	<path class="st10" d="M387.2,60.7c-7.8-0.3-14.4,5.8-14.8,13.6c-0.1,1.5-0.2,3.1-0.5,4.6c-0.3,1.6-0.7,3.3-1.1,5.1
		c0,0.1-0.1,0.2-0.1,0.3l-0.1,0.4l0.2,0c10.4,1.1,19.2,3.8,26.3,8l0.2,0.1l0.2-0.5c0-0.1,0.1-0.2,0.1-0.3c0.8-2.6,1.5-5.1,2-7.7
		c0.6-2.8,1-5.5,1.2-8.3l0-0.1c0-0.2,0-0.3,0-0.5C401.1,67.7,395,61.1,387.2,60.7z"/>
	<path class="st13" d="M472.2,204c-16.4-0.4-32.7-0.5-49.1-0.2c-5,0-10.1-0.1-15.1-0.2l3.9-3.4c6.1-5.3,12.2-10.6,18.3-15.9
		l18.4-15.9c0.1-0.1,0.3-0.2,0.4-0.3c1.1-1,2-2,2.9-3.2c6.5-7.7,8.2-14.5,4.2-29.7c-20.4,11.1-32.7,17.5-56.8,19.5
		c-5.2,4.9-10.5,9.9-15.7,14.9l-4.5,4.4l-2.2,2.2l-2.3,2.2c-1.5,1.5-3,3.1-4.6,4.6l-2.4,2.5l-2.2,2.3c-1.5,1.6-3.1,3.3-4.7,5.3
		c-0.8,1-1.7,2-2.5,3.2c-0.9,1.2-1.8,2.4-2.7,3.9c-0.9,1.5-2,3.2-3,5.7c-0.3,0.6-0.5,1.3-0.8,2c-0.1,0.4-0.3,0.8-0.4,1.2l-0.2,0.7
		c-0.1,0.2-0.1,0.4-0.2,0.7c-0.2,0.9-0.4,2-0.6,3.2c-0.1,1.2-0.2,2.6-0.1,4.2c0.1,1.6,0.3,3.3,0.9,5.1c0.5,1.8,1.3,3.7,2.3,5.4
		c1,1.7,2.1,3.1,3.2,4.2c1.1,1.1,2.1,2,3.1,2.7c1,0.7,1.9,1.2,2.7,1.7c0.8,0.4,1.6,0.8,2.3,1.1c1.4,0.6,2.6,1,3.7,1.3
		c2.2,0.6,3.9,0.9,5.5,1.2c1.6,0.2,3.1,0.4,4.4,0.5c2.8,0.2,5.2,0.2,7.6,0.2c1.2,0,2.3,0,3.4-0.1l3.1-0.1l6.1-0.2
		c8.2-0.3,16.4-0.5,24.5-0.5c16.4,0.3,32.7,0.2,49.1-0.2c9.6-0.2,17.4-8,17.6-17.6C490,212.5,482.1,204.2,472.2,204z"/>
</g>
</svg>
