<?xml version="1.0" encoding="utf-8"?>
<!-- Generator: Adobe Illustrator 24.3.0, SVG Export Plug-In . SVG Version: 6.00 Build 0)  -->
<svg version="1.1" id="Capa_1" xmlns="http://www.w3.org/2000/svg" xmlns:xlink="http://www.w3.org/1999/xlink" x="0px" y="0px"
	 viewBox="0 0 264.9 66.6" style="enable-background:new 0 0 264.9 66.6;" xml:space="preserve">
<style type="text/css">
	.st0{fill:#E5C34D;}
	.st1{fill:#CDCDCD;}
	.st2{fill:#003A70;}
	.st3{fill:#F8E08E;}
</style>
<g>
	<path class="st0" d="M172.2,59.3c-0.5,0-0.9-0.1-1.3-0.4c-1.2-0.7-1.5-2.3-0.8-3.4c1.2-1.9,1.5-8,1-9.3c-1.1-1.6-1.4-3.8-0.7-5.8
		c0.6-1.7,1.8-2.9,3.4-3.4c1.3-0.4,2.7,0.4,3.1,1.7c0.4,1.3-0.3,2.7-1.6,3.1c-0.2,0.2-0.4,1.1,0,1.6c2.1,3,1,11.9-0.9,14.8
		C173.9,58.8,173,59.3,172.2,59.3z M171.1,46.1C171.1,46.1,171.1,46.2,171.1,46.1C171.1,46.2,171.1,46.1,171.1,46.1z"/>
</g>
<g>
	<path class="st0" d="M181.3,41.9c-22.1,0-30.4-5.5-30.7-5.7c-1.1-0.8-1.4-2.3-0.7-3.5c0.8-1.1,2.3-1.4,3.5-0.7
		c0.2,0.1,7.8,4.9,27.9,4.9c20.2,0,27.9-4.8,27.9-4.9c1.1-0.7,2.7-0.4,3.5,0.7c0.8,1.1,0.5,2.7-0.7,3.4
		C211.6,36.4,203.3,41.9,181.3,41.9z"/>
</g>
<g>
	<g>
		<path class="st1" d="M49.2,47.6H20.5C9.2,47.6,0,36.9,0,23.8S9.2,0,20.5,0h28.6c11.3,0,20.5,10.7,20.5,23.8S60.5,47.6,49.2,47.6z
			 M20.5,11c-5.2,0-9.5,5.9-9.5,12.8s4.4,12.8,9.5,12.8h28.6c5.2,0,9.5-5.9,9.5-12.8S54.3,11,49.2,11H20.5z"/>
	</g>
	<g>
		<path class="st1" d="M146.8,47.6h-28.6c-11.3,0-20.5-10.7-20.5-23.8S106.8,0,118.1,0h28.6c11.3,0,20.5,10.7,20.5,23.8
			S158.1,47.6,146.8,47.6z M118.1,11c-5.2,0-9.5,5.9-9.5,12.8s4.4,12.8,9.5,12.8h28.6c5.2,0,9.5-5.9,9.5-12.8S151.9,11,146.8,11
			H118.1z"/>
	</g>
</g>
<g>
	<path class="st1" d="M113,29.3H54.3c-3,0-5.5-2.5-5.5-5.5s2.5-5.5,5.5-5.5H113c3,0,5.5,2.5,5.5,5.5S116,29.3,113,29.3z"/>
</g>
<g>
	<g>
		<path class="st1" d="M244.4,47.6h-28.6c-11.3,0-20.5-10.7-20.5-23.8S204.4,0,215.7,0h28.6c11.3,0,20.5,10.7,20.5,23.8
			S255.7,47.6,244.4,47.6z M215.7,11c-5.2,0-9.5,5.9-9.5,12.8s4.4,12.8,9.5,12.8h28.6c5.2,0,9.5-5.9,9.5-12.8S249.5,11,244.4,11
			H215.7z"/>
	</g>
</g>
<g>
	<path class="st2" d="M210.6,29.3h-58.7c-3,0-5.5-2.5-5.5-5.5s2.5-5.5,5.5-5.5h58.7c3,0,5.5,2.5,5.5,5.5S213.6,29.3,210.6,29.3z"/>
</g>
<g>
	<path class="st3" d="M176.8,43.7c-0.6,0-1.3-0.2-1.8-0.7c-1-1-1-2.6,0-3.5l3.6-3.6c1-1,2.6-1,3.5,0c1,1,1,2.6,0,3.5l-3.6,3.6
		C178.1,43.5,177.4,43.7,176.8,43.7z"/>
</g>
<g>
	<path class="st3" d="M182.1,43.7c-0.6,0-1.3-0.2-1.8-0.7c-1-1-1-2.6,0-3.5l3.6-3.6c1-1,2.6-1,3.5,0c1,1,1,2.6,0,3.5l-3.6,3.6
		C183.3,43.5,182.7,43.7,182.1,43.7z"/>
</g>
<g>
	<path class="st3" d="M184.7,66.6c-1.1,0-2.1-0.7-2.4-1.8c-2.4-8.2,1.3-23.9,3-26.3c0.8-1.1,2.4-1.4,3.5-0.6
		c1.1,0.8,1.4,2.3,0.6,3.4c-1,1.8-4.4,15.2-2.4,22.1c0.4,1.3-0.4,2.7-1.7,3.1C185.2,66.6,185,66.6,184.7,66.6z"/>
</g>
<g>
	<path class="st3" d="M210.6,34h-58.7c-1.4,0-2.5-1.1-2.5-2.5s1.1-2.5,2.5-2.5h58.7c1.4,0,2.5,1.1,2.5,2.5
		C213.1,32.9,212,34,210.6,34z"/>
</g>
</svg>
