<?xml version="1.0" encoding="utf-8"?>
<!-- Generator: Adobe Illustrator 24.3.0, SVG Export Plug-In . SVG Version: 6.00 Build 0)  -->
<svg version="1.1" id="Capa_1" xmlns="http://www.w3.org/2000/svg" xmlns:xlink="http://www.w3.org/1999/xlink" x="0px" y="0px"
	 viewBox="0 0 300 266.6" style="enable-background:new 0 0 300 266.6;" xml:space="preserve">
<style type="text/css">
	.st0{fill:#FFFFFF;}
	.st1{clip-path:url(#SVGID_2_);fill:#C1272D;}
	.st2{clip-path:url(#SVGID_2_);fill:#FFFF00;}
	.st3{clip-path:url(#SVGID_2_);}
	.st4{clip-path:url(#SVGID_4_);fill:#F8E08E;}
	.st5{clip-path:url(#SVGID_4_);fill:#E5C34D;}
	.st6{clip-path:url(#SVGID_2_);fill:#71CC98;}
	.st7{clip-path:url(#SVGID_6_);fill:#007D8A;}
	.st8{clip-path:url(#SVGID_6_);fill:#003A70;}
	.st9{clip-path:url(#SVGID_8_);fill:#C1272D;}
	.st10{clip-path:url(#SVGID_8_);fill:#FFFF00;}
	.st11{clip-path:url(#SVGID_8_);}
	.st12{clip-path:url(#SVGID_10_);fill:#F8E08E;}
	.st13{clip-path:url(#SVGID_10_);fill:#E5C34D;}
	.st14{clip-path:url(#SVGID_8_);fill:#71CC98;}
	.st15{clip-path:url(#SVGID_12_);fill:#007D8A;}
	.st16{clip-path:url(#SVGID_12_);fill:#003A70;}
	.st17{clip-path:url(#SVGID_14_);fill:#C1272D;}
	.st18{clip-path:url(#SVGID_14_);fill:#FFFF00;}
	.st19{clip-path:url(#SVGID_14_);}
	.st20{clip-path:url(#SVGID_16_);fill:#F8E08E;}
	.st21{clip-path:url(#SVGID_16_);fill:#E5C34D;}
	.st22{clip-path:url(#SVGID_14_);fill:#71CC98;}
	.st23{clip-path:url(#SVGID_18_);fill:#007D8A;}
	.st24{clip-path:url(#SVGID_18_);fill:#003A70;}
</style>
<g>
	<defs>
		<path id="SVGID_1_" d="M295,171.9c-8.2-10.7-23.4-12.7-34.1-4.6c-5.7,4.4-10.7,8.8-15.4,13.1c-4.7,4.2-23,25.3-30.7,21.6
			c-12.2-5.8-8.7-38.1-8.1-49c0.5-11,1.7-22.4,3.3-34c1.5-11.6,3.4-23.4,5.5-35.2l6.4-36.1c2.4-13.6-5.2-27.5-18.7-32.3
			c-6.5-2.4-13.3-2.2-19.3-0.2c-2-2.7-4.7-5.1-7.8-6.9C169.8,5,162.7,2.3,155.4,1c-7.4-1.3-14.9-1.3-21.8-0.3c-7,1-13.4,3-19.3,5.3
			c-5.9,2.4-11.2,5.2-16.2,8.3c-9.9,6.1-18.3,13.1-25.9,20.4C64.6,42,57.8,49.6,51.4,57.5c-1.6,2-3.1,3.9-4.7,5.9l-2.3,3l-2.4,3.2
			c-3.1,4.3-6,8.8-8.8,13.3c-5.6,9-10.6,18.2-15.2,27.6c-4.5,9.4-8.6,19.1-11.7,29.2c-3.1,10.1-5.2,20.6-6.1,31.8
			c-0.4,5.7-0.5,11.5,0,18.4c0.1,1.7,1.9,38.6,30.9,58.2c44.8,30.3,96.2-1,115.3-21.1c1-1.1,2-2.2,3-3.3c1.5,3.1,3.2,6.3,5.3,9.4
			c3,4.7,6.8,9.3,11.4,13.5c1.1,1.1,2.3,2.1,3.6,3.1l1.9,1.5l1.5,1c1.9,1.3,4,2.7,6.1,3.9c4.3,2.5,9.1,5,14.6,6.8
			c5.5,1.9,11.6,3.2,18,3.5c6.4,0.4,13-0.4,19-1.9c6-1.5,11.4-3.9,16.1-6.5c4.7-2.6,8.6-5.5,12.1-8.5c3.5-2.9,6.5-5.9,9.2-8.9
			c2.7-2.9,5.1-5.9,7.4-8.8c4.4-5.8,8.2-11.4,11.5-16.8c3.4-5.4,6.4-10.5,9.1-15.4l0.7-1.2C301.5,190.4,301.1,179.9,295,171.9z
			 M79.3,197.8c-15-5.7-2-56.2,0-63.7c1-3.7,2.1-7.4,3.4-11c1.2-3.6,2.7-7.1,4.3-10.5c1.6-3.4,3.4-6.7,5.2-9.9l1.4-2.4
			c0.5-0.8,1.1-1.7,1.6-2.5c1.1-1.7,2.2-3.4,3.3-5c4.5-6.6,9.3-12.9,14.3-18.5c5-5.6,10.3-10.7,15.4-14.6c5.2-3.9,10.3-6.3,14.1-7.4
			c7.1-2.1,13.1-2.9,18.1-3.3c-0.2,0.7-0.5,1.4-0.7,2.2c-2,6.1-3.9,12.4-5.6,18.6c-3.5,12.6-6.6,25.3-9.2,38.5
			c-0.9,4.9-1.8,9.9-2.6,14.9l0,0c-3,21-13.3,38-22.4,49.5C115.4,178.5,96.6,204.4,79.3,197.8z"/>
	</defs>
	<clipPath id="SVGID_2_">
		<use xlink:href="#SVGID_1_"  style="overflow:visible;"/>
	</clipPath>
	<path class="st1" d="M176,8.4C169.8,5,162.7,2.3,155.4,1c-7.4-1.3-14.9-1.3-21.8-0.3c-7,1-13.4,3-19.3,5.3
		c-5.9,2.4-11.2,5.2-16.2,8.3c-9.9,6.1-18.3,13.1-25.9,20.4C64.6,42,57.8,49.6,51.4,57.5c-1.6,2-3.1,3.9-4.7,5.9l-2.3,3l-2.4,3.2
		c-3.1,4.3-6,8.8-8.8,13.3c-5.6,9-10.6,18.2-15.2,27.6c-4.5,9.4-8.6,19.1-11.7,29.2c-3.1,10.1-5.2,20.6-6.1,31.8
		c-0.4,5.7-0.5,11.5,0,18.4c0.1,1.7,1.9,38.6,30.9,58.2c44.8,30.3,96.2-1,115.3-21.1c7.9-8.3,13.2-18.3,17.9-28.1
		c4.7-9.8,8.2-19.8,10.7-29.8c1.2-5,2.2-10,3-15c0.8-5,1.3-10,1.6-15c0.5-8.1-4.1-16-12.1-19.2c-9.9-3.9-25.3,3.1-25.3,3.1
		c-3,21-13.3,38-22.4,49.5c-4.5,5.8-23.3,31.7-40.6,25.1c-15-5.7-2-56.2,0-63.7c1-3.7,2.1-7.4,3.4-11c1.2-3.6,2.7-7.1,4.3-10.5
		c1.6-3.4,3.4-6.7,5.2-9.9l1.4-2.4c0.5-0.8,1.1-1.7,1.6-2.5c1.1-1.7,2.2-3.4,3.3-5c4.5-6.6,9.3-12.9,14.3-18.5
		c5-5.6,10.3-10.7,15.4-14.6c5.2-3.9,10.3-6.3,14.1-7.4c26.4-7.8,37,1.6,43.3-9.7C192.4,30.5,188.1,15.2,176,8.4z"/>
	<path class="st2" d="M221.8,47.8l-6.4,36.1c-2.1,11.9-4,23.6-5.5,35.2c-1.6,11.6-2.7,23-3.3,34c-0.5,10.9-4.1,43.2,8.1,49
		c7.7,3.6,26-17.4,30.7-21.6c4.7-4.2,9.7-8.7,15.4-13.1c10.7-8.2,26-6.1,34.1,4.6c6.1,8,6.5,18.5,1.8,26.8l-0.7,1.2
		c-2.7,4.8-5.7,10-9.1,15.4c-3.4,5.4-7.1,11-11.5,16.8c-2.2,2.9-4.6,5.8-7.4,8.8c-2.7,2.9-5.7,5.9-9.2,8.9
		c-3.5,2.9-7.4,5.8-12.1,8.5c-4.7,2.6-10,5-16.1,6.5c-6,1.6-12.6,2.3-19,1.9c-6.4-0.3-12.6-1.7-18-3.5c-5.5-1.9-10.3-4.3-14.6-6.8
		c-2.1-1.3-4.2-2.6-6.1-3.9l-1.5-1l-1.9-1.5c-1.3-1-2.4-2-3.6-3.1c-4.6-4.2-8.4-8.9-11.4-13.5c-3-4.7-5.4-9.3-7.3-13.9
		c-3.7-9.1-5.7-17.6-7-25.7c-2.4-16.1-2.2-30.7-1.2-44.8c1-14,3.1-27.5,5.6-40.6c2.6-13.1,5.7-25.9,9.2-38.5
		c1.8-6.3,3.6-12.5,5.6-18.6c1.9-6.2,4-12.2,6.2-18.2l0-0.1c5.5-15.1,22.1-22.8,37.2-17.4C216.6,20.3,224.2,34.1,221.8,47.8z"/>
	<g class="st3">
		<defs>
			<path id="SVGID_3_" d="M176,8.4C169.8,5,162.7,2.3,155.4,1c-7.4-1.3-14.9-1.3-21.8-0.3c-7,1-13.4,3-19.3,5.3
				c-5.9,2.4-11.2,5.2-16.2,8.3c-9.9,6.1-18.3,13.1-25.9,20.4C64.6,42,57.8,49.6,51.4,57.5c-1.6,2-3.1,3.9-4.7,5.9l-2.3,3l-2.4,3.2
				c-3.1,4.3-6,8.8-8.8,13.3c-5.6,9-10.6,18.2-15.2,27.6c-4.5,9.4-8.6,19.1-11.7,29.2c-3.1,10.1-5.2,20.6-6.1,31.8
				c-0.4,5.7-0.5,11.5,0,18.4c0.1,1.7,1.9,38.6,30.9,58.2c44.8,30.3,96.2-1,115.3-21.1c7.9-8.3,13.2-18.3,17.9-28.1
				c4.7-9.8,8.2-19.8,10.7-29.8c1.2-5,2.2-10,3-15c0.8-5,1.3-10,1.6-15c0.5-8.1-4.1-16-12.1-19.2c-9.9-3.9-25.3,3.1-25.3,3.1
				c-3,21-13.3,38-22.4,49.5c-4.5,5.8-23.3,31.7-40.6,25.1c-15-5.7-2-56.2,0-63.7c1-3.7,2.1-7.4,3.4-11c1.2-3.6,2.7-7.1,4.3-10.5
				c1.6-3.4,3.4-6.7,5.2-9.9l1.4-2.4c0.5-0.8,1.1-1.7,1.6-2.5c1.1-1.7,2.2-3.4,3.3-5c4.5-6.6,9.3-12.9,14.3-18.5
				c5-5.6,10.3-10.7,15.4-14.6c5.2-3.9,10.3-6.3,14.1-7.4c26.4-7.8,37,1.6,43.3-9.7C192.4,30.5,188.1,15.2,176,8.4z"/>
		</defs>
		<clipPath id="SVGID_4_">
			<use xlink:href="#SVGID_3_"  style="overflow:visible;"/>
		</clipPath>
		<path class="st4" d="M176,8.4C169.8,5,162.7,2.3,155.4,1c-7.4-1.3-14.9-1.3-21.8-0.3c-7,1-13.4,3-19.3,5.3
			c-5.9,2.4-11.2,5.2-16.2,8.3c-9.9,6.1-18.3,13.1-25.9,20.4C64.6,42,57.8,49.6,51.4,57.5c-1.6,2-3.1,3.9-4.7,5.9l-2.3,3l-2.4,3.2
			c-3.1,4.3-6,8.8-8.8,13.3c-5.6,9-10.6,18.2-15.2,27.6c-4.5,9.4-8.6,19.1-11.7,29.2c-3.1,10.1-5.2,20.6-6.1,31.8
			c-0.4,5.7-0.5,11.5,0,18.4c0.1,1.7,1.9,38.6,30.9,58.2c44.8,30.3,96.2-1,115.3-21.1c7.9-8.3,13.2-18.3,17.9-28.1
			c4.7-9.8,8.2-19.8,10.7-29.8c1.2-5,2.2-10,3-15c0.8-5,1.3-10,1.6-15c0.5-8.1-4.1-16-12.1-19.2c-9.9-3.9-25.3,3.1-25.3,3.1
			c-3,21-13.3,38-22.4,49.5c-4.5,5.8-23.3,31.7-40.6,25.1c-15-5.7-2-56.2,0-63.7c1-3.7,2.1-7.4,3.4-11c1.2-3.6,2.7-7.1,4.3-10.5
			c1.6-3.4,3.4-6.7,5.2-9.9l1.4-2.4c0.5-0.8,1.1-1.7,1.6-2.5c1.1-1.7,2.2-3.4,3.3-5c4.5-6.6,9.3-12.9,14.3-18.5
			c5-5.6,10.3-10.7,15.4-14.6c5.2-3.9,10.3-6.3,14.1-7.4c26.4-7.8,37,1.6,43.3-9.7C192.4,30.5,188.1,15.2,176,8.4z"/>
		<path class="st5" d="M153.7-7.6C51.7-2,28.5,163,76.3,195.7c18.5-14.6,62.2-109.5,62.2-109.5l63.8-21.5l10.6-55.4L153.7-7.6z"/>
	</g>
	<path class="st6" d="M221.8,47.8l-6.4,36.1c-2.1,11.9-4,23.6-5.5,35.2c-1.6,11.6-2.7,23-3.3,34c-0.5,10.9-4.1,43.2,8.1,49
		c7.7,3.6,26-17.4,30.7-21.6c4.7-4.2,9.7-8.7,15.4-13.1c10.7-8.2,26-6.1,34.1,4.6c6.1,8,6.5,18.5,1.8,26.8l-0.7,1.2
		c-2.7,4.8-5.7,10-9.1,15.4c-3.4,5.4-7.1,11-11.5,16.8c-2.2,2.9-4.6,5.8-7.4,8.8c-2.7,2.9-5.7,5.9-9.2,8.9
		c-3.5,2.9-7.4,5.8-12.1,8.5c-4.7,2.6-10,5-16.1,6.5c-6,1.6-12.6,2.3-19,1.9c-6.4-0.3-12.6-1.7-18-3.5c-5.5-1.9-10.3-4.3-14.6-6.8
		c-2.1-1.3-4.2-2.6-6.1-3.9l-1.5-1l-1.9-1.5c-1.3-1-2.4-2-3.6-3.1c-4.6-4.2-8.4-8.9-11.4-13.5c-3-4.7-5.4-9.3-7.3-13.9
		c-3.7-9.1-5.7-17.6-7-25.7c-2.4-16.1-2.2-30.7-1.2-44.8c1-14,3.1-27.5,5.6-40.6c2.6-13.1,5.7-25.9,9.2-38.5
		c1.8-6.3,3.6-12.5,5.6-18.6c1.9-6.2,4-12.2,6.2-18.2l0-0.1c5.5-15.1,22.1-22.8,37.2-17.4C216.6,20.3,224.2,34.1,221.8,47.8z"/>
	<g class="st3">
		<defs>
			<path id="SVGID_5_" d="M221.8,47.8l-6.4,36.1c-2.1,11.9-4,23.6-5.5,35.2c-1.6,11.6-2.7,23-3.3,34c-0.5,10.9-4.1,43.2,8.1,49
				c7.7,3.6,26-17.4,30.7-21.6c4.7-4.2,9.7-8.7,15.4-13.1c10.7-8.2,26-6.1,34.1,4.6c6.1,8,6.5,18.5,1.8,26.8l-0.7,1.2
				c-2.7,4.8-5.7,10-9.1,15.4c-3.4,5.4-7.1,11-11.5,16.8c-2.2,2.9-4.6,5.8-7.4,8.8c-2.7,2.9-5.7,5.9-9.2,8.9
				c-3.5,2.9-7.4,5.8-12.1,8.5c-4.7,2.6-10,5-16.1,6.5c-6,1.6-12.6,2.3-19,1.9c-6.4-0.3-12.6-1.7-18-3.5c-5.5-1.9-10.3-4.3-14.6-6.8
				c-2.1-1.3-4.2-2.6-6.1-3.9l-1.5-1l-1.9-1.5c-1.3-1-2.4-2-3.6-3.1c-4.6-4.2-8.4-8.9-11.4-13.5c-3-4.7-5.4-9.3-7.3-13.9
				c-3.7-9.1-5.7-17.6-7-25.7c-2.4-16.1-2.2-30.7-1.2-44.8c1-14,3.1-27.5,5.6-40.6c2.6-13.1,5.7-25.9,9.2-38.5
				c1.8-6.3,3.6-12.5,5.6-18.6c1.9-6.2,4-12.2,6.2-18.2l0-0.1c5.5-15.1,22.1-22.8,37.2-17.4C216.6,20.3,224.2,34.1,221.8,47.8z"/>
		</defs>
		<clipPath id="SVGID_6_">
			<use xlink:href="#SVGID_5_"  style="overflow:visible;"/>
		</clipPath>
		<path class="st7" d="M193.7,263c46,5.6,65-44.6,67.1-95.7c-5.3-2.4-45.9,28.6-45.9,28.6l9.2-128.7l-86.4-31l-10.6,188l36,32.8
			L193.7,263z"/>
		<path class="st8" d="M178,6.1c-27.2,34.6-52.4,142.7,36.8,195.9c0-15.6,16.1-188.3,16.1-188.3L178,6.1z"/>
	</g>
</g>
</svg>
