<svg width="20" height="20" viewBox="0 0 20 20" fill="none" xmlns="http://www.w3.org/2000/svg">
<path d="M10.95 0V2.02C15.34 2.56 18.45 6.55 17.91 10.94C17.45 14.58 14.59 17.47 10.95 17.9V19.9C16.45 19.35 20.45 14.47 19.9 8.97C19.45 4.22 15.68 0.47 10.95 0V0ZM8.95 0.03C7 0.22 5.14 0.97 3.62 2.23L5.05 3.71C6.17 2.81 7.52 2.23 8.95 2.03V0.03V0.03ZM2.21 3.64C0.959656 5.15734 0.190202 7.01308 0 8.97H2C2.19 7.55 2.75 6.2 3.64 5.07L2.21 3.64ZM0.00999999 10.97C0.21 12.93 0.98 14.78 2.22 16.3L3.64 14.87C2.75693 13.7396 2.19395 12.3926 2.01 10.97H0.00999999V10.97ZM5.05 16.34L3.62 17.71C5.13478 18.9727 6.98927 19.759 8.95 19.97V17.97C7.5274 17.786 6.1804 17.2231 5.05 16.34V16.34ZM14.77 13.16L10.66 9.05C11.07 8.01 10.84 6.79 9.98 5.94C9.08 5.03 7.73 4.85 6.64 5.35L8.58 7.29L7.23 8.65L5.24 6.7C4.7 7.79 4.95 9.14 5.83 10.05C6.69 10.91 7.91 11.13 8.95 10.73L13.06 14.83C13.24 15.02 13.51 15.02 13.69 14.83L14.73 13.8C14.95 13.62 14.95 13.3 14.77 13.16V13.16Z" fill="#71CC98"/>
</svg>
