<svg width="146" height="145" viewBox="0 0 146 145" fill="none" xmlns="http://www.w3.org/2000/svg">
<path d="M132.539 30.6983C123.818 18.6404 111.874 9.40853 97.8442 4.32159C83.6249 -0.953754 67.5098 -1.33056 52.9114 2.81435C38.8817 6.77086 26.1792 15.0607 16.8893 26.1766C7.22024 37.8577 1.53255 51.9881 0.205417 67.0605C-0.932122 82.1329 2.67008 97.3938 10.6329 110.205C18.2165 122.452 29.4023 132.626 42.6735 138.466C56.7032 144.872 72.6287 146.568 87.7959 143.553C102.205 140.727 115.666 133.191 125.714 122.64C135.762 112.089 142.777 98.5242 145.052 84.017C145.621 80.2489 146 76.4808 146 72.5243C145.81 57.6403 141.26 42.9447 132.539 30.6983Z" fill="#003A70"/>
<path d="M49.6887 68.8662C47.8565 65.2159 46.3908 61.383 45.1083 57.3677C44.5586 55.3601 43.8257 53.3524 43.2761 51.3447C43.2761 51.3447 43.0929 51.3447 43.0929 51.5272C42.9096 51.5272 42.7264 51.7098 42.5432 51.8923C42.1768 52.0748 41.8103 52.2573 41.2607 52.6223C39.4285 53.7174 38.146 54.8125 36.6803 56.2726C34.2985 58.8278 32.4663 61.9306 32.0999 65.3984C34.2985 65.3984 36.4971 65.7634 38.5124 66.311C41.4439 67.2235 44.3754 68.5011 46.9404 70.3263C48.7726 71.6039 50.6048 72.8815 52.4369 73.9766C52.6201 73.9766 52.6201 74.1591 52.8034 74.1591C51.5208 72.5165 50.4215 70.6913 49.6887 68.8662Z" fill="#71CC98"/>
<path d="M35.9475 51.8924C37.7797 50.4323 39.9783 48.7896 42.3601 48.0596C41.2608 43.6792 40.5279 39.1163 39.7951 34.5535C36.4972 35.8311 33.5657 37.6562 31.0006 39.8464C25.6874 44.4093 21.8398 50.2497 20.0076 56.8203C19.8244 57.5503 19.6412 58.2804 19.458 59.193C19.458 59.558 19.2748 59.923 19.2748 60.2881C19.2748 60.4706 19.2748 60.6531 19.2748 60.8356V61.0181C19.0916 62.4782 19.0916 63.7558 19.0916 65.216C19.0916 65.581 19.0916 65.946 19.0916 66.1285C19.0916 66.311 19.0916 66.3111 19.0916 66.4936V66.6761C19.2748 67.2236 19.2748 67.7712 19.458 68.5012C19.6412 68.5012 19.6412 68.3187 19.8244 68.3187C22.3895 66.8586 25.3209 65.946 28.2524 65.581C28.2524 63.9384 28.6188 62.4782 29.1685 60.8356C30.6342 57.3678 33.016 54.2651 35.9475 51.8924Z" fill="#71CC98"/>
<path d="M15.6105 64.3034C15.6105 57.3678 18.1755 50.4323 21.8399 44.9568C26.2371 38.5688 32.2832 33.6409 39.4287 30.9032V30.7207C39.0622 26.7053 38.879 22.69 39.2455 18.6747C39.4287 17.2146 39.6119 15.5719 39.7951 14.1118C19.458 25.4277 5.53357 47.3295 5.53357 72.334C5.53357 76.3494 5.9 80.3647 6.63287 84.1975C8.83147 78.9046 12.1294 73.9767 16.5266 70.5089C15.7937 68.5012 15.6105 66.3111 15.6105 64.3034Z" fill="#71CC98"/>
<path d="M109.051 19.5871C112.166 21.2297 115.28 23.2374 118.028 25.4276C120.777 27.6177 123.159 29.9904 125.54 32.5456C126.823 34.0058 128.105 35.2834 129.571 36.7435C117.662 17.9445 96.7753 5.53345 72.7739 5.53345C62.5138 5.53345 52.8033 7.72362 44.1921 11.9215C43.8256 12.834 43.6424 13.9291 43.4592 15.0242C43.4592 15.3892 43.276 15.9368 43.276 16.3018C43.276 16.4843 43.276 16.4843 43.276 16.6669C43.276 16.6669 43.276 16.6669 43.276 16.8494V17.0319C43.276 17.2144 43.276 17.2144 43.276 17.3969C43.0928 18.3095 43.0928 19.2221 43.0928 20.1346C51.1543 15.7543 60.1319 12.834 69.2928 11.9215C82.6676 10.4613 96.7753 13.1991 109.051 19.5871Z" fill="#007D8A"/>
<path d="M135.434 48.7893C135.618 48.7893 135.618 48.7893 135.434 48.7893C135.434 48.6068 135.434 48.6068 135.251 48.4243C134.701 47.1467 134.152 45.6866 133.602 44.409C132.136 43.4964 130.671 42.4013 129.205 41.3062C126.64 39.116 124.258 36.5608 122.059 34.0056C119.678 31.4504 117.296 29.0777 114.548 27.0701C111.799 25.0624 109.051 23.4198 106.12 21.9596C103.371 20.682 100.99 19.5869 98.2413 18.6744C95.1266 17.5793 92.0119 16.8492 88.714 16.1192C81.5685 14.659 74.2399 14.4765 67.0944 15.3891C58.6664 16.4842 50.6049 19.4044 43.2762 23.6023C43.093 23.6023 42.9098 23.7848 42.9098 23.7848C42.9098 26.5225 43.093 29.4427 43.4594 32.1805C43.6427 34.3706 44.0091 36.3783 44.3755 38.751C44.742 40.9412 45.2916 43.3139 45.658 45.504C46.5741 49.8844 47.8566 54.2648 49.3224 58.4626C49.6888 59.3752 50.0552 60.4703 50.4217 61.3828C50.6049 61.9304 50.7881 62.2954 50.9713 62.843C51.1546 63.0255 51.1545 63.3905 51.3378 63.573C51.3378 63.573 51.521 63.9381 51.521 64.1206C52.2538 65.7632 52.9867 67.4058 53.9028 69.0485C54.086 69.4135 54.2692 69.7785 54.4524 70.1436C54.4524 69.961 54.4524 69.7785 54.4524 69.596C57.0175 57.55 70.7587 36.9259 95.6762 38.386C109.601 39.2985 126.457 54.8123 135.434 48.9718C135.618 48.9718 135.801 48.9718 135.801 48.9718C135.618 48.9718 135.618 48.9718 135.434 48.7893Z" fill="#007D8A"/>
<path d="M95.8593 75.9843C97.6915 79.6346 99.1572 83.4674 100.44 87.4828C100.989 89.4904 101.722 91.4981 102.272 93.5058C102.272 93.5058 102.455 93.5058 102.455 93.3232C102.638 93.3232 102.822 93.1407 103.005 92.9582C103.371 92.7757 103.738 92.5932 104.287 92.2282C106.119 91.1331 107.402 90.038 108.868 88.5779C111.25 86.0227 113.082 82.9199 113.448 79.4521C111.25 79.4521 109.051 79.0871 107.036 78.5396C104.104 77.627 101.173 76.3494 98.6076 74.5242C96.7754 73.2466 94.9432 71.969 93.1111 70.8739C92.9278 70.8739 92.9278 70.6914 92.7446 70.6914C94.0271 72.334 94.9432 74.1592 95.8593 75.9843Z" fill="#71CC98"/>
<path d="M109.417 92.9582C107.585 94.4183 105.387 96.061 103.005 96.791C104.104 101.171 104.837 105.734 105.57 110.297C108.868 109.02 111.799 107.194 114.364 105.004C119.678 100.441 123.525 94.6008 125.357 88.0303C125.54 87.3003 125.724 86.5702 125.907 85.6576C125.907 85.2926 126.09 84.9276 126.09 84.5625C126.09 84.38 126.09 84.1975 126.09 84.015V83.8325C126.273 82.3724 126.273 81.0947 126.273 79.6346C126.273 79.2696 126.273 78.9046 126.273 78.7221C126.273 78.5395 126.273 78.5395 126.273 78.357V78.1745C126.09 77.627 126.09 77.0794 125.907 76.3494C125.724 76.3494 125.724 76.5319 125.54 76.5319C122.975 77.992 120.044 78.9046 117.112 79.2696C117.112 80.9122 116.746 82.3724 116.196 84.015C114.731 87.4828 112.349 90.5855 109.417 92.9582Z" fill="#71CC98"/>
<path d="M129.754 80.5471C129.754 87.4827 127.189 94.4182 123.525 99.8937C119.128 106.282 113.082 111.21 105.936 113.947V114.13C106.303 118.145 106.486 122.16 106.119 126.176C105.936 127.636 105.753 129.279 105.57 130.739C126.09 119.24 140.015 97.521 140.015 72.3339C140.015 68.3186 139.648 64.3033 138.915 60.4705C136.717 65.7634 133.419 70.6913 129.022 74.1591C129.571 76.1667 129.754 78.3569 129.754 80.5471Z" fill="#71CC98"/>
<path d="M36.3139 125.263C33.1992 123.621 30.0845 121.613 27.3362 119.423C24.588 117.233 22.2062 114.86 19.8243 112.305C18.5418 110.845 17.2593 109.567 15.7936 108.107C27.7027 126.906 48.5894 139.317 72.5908 139.317C82.8509 139.317 92.5614 137.127 101.173 132.929C101.539 132.016 101.722 130.921 101.905 129.826C101.905 129.461 102.089 128.914 102.089 128.549C102.089 128.366 102.089 128.366 102.089 128.184C102.089 128.184 102.089 128.184 102.089 128.001V127.819C102.089 127.636 102.089 127.636 102.089 127.454C102.272 126.541 102.272 125.628 102.272 124.716C94.2104 129.096 85.2328 132.016 76.0719 132.929C62.6971 134.389 48.5894 131.469 36.3139 125.263Z" fill="#007D8A"/>
<path d="M15.9767 103.362C18.5417 105.552 20.9235 108.107 23.1221 110.662C25.5039 113.217 27.8858 115.59 30.634 117.598C33.3823 119.605 36.1305 121.248 39.062 122.708C41.8102 123.986 44.1921 125.081 46.9403 125.993C50.055 127.088 53.1697 127.819 56.4676 128.549C63.613 130.009 70.9417 130.191 78.0872 129.279C86.5151 128.184 94.5767 125.263 101.905 121.065C102.089 121.065 102.272 120.883 102.272 120.883C102.272 118.145 102.089 115.225 101.722 112.487C101.539 110.297 101.172 108.289 100.806 105.917C100.44 103.727 99.89 101.354 99.5235 99.1637C98.6075 94.7833 97.3249 90.403 95.8592 86.2051C95.4928 85.2925 95.1263 84.1975 94.7599 83.2849C94.5767 82.7373 94.3935 82.3723 94.2103 81.8248C94.027 81.6422 94.027 81.2772 93.8438 81.0947C93.8438 81.0947 93.6606 80.7297 93.6606 80.5472C92.9277 78.9045 92.1949 77.2619 91.2788 75.6193C91.0956 75.2542 90.9124 74.8892 90.7291 74.5242C90.7291 74.7067 90.7291 74.8892 90.7291 75.0717C88.1641 87.1177 74.4228 107.742 49.5053 106.282C35.5809 105.369 18.7249 89.8554 9.74729 95.6959C9.56408 95.6959 9.38086 95.6959 9.38086 95.6959C9.38086 95.8784 9.38086 95.8784 9.56408 96.0609C9.56408 96.0609 9.56408 96.0609 9.38086 96.0609L9.56408 96.2434C10.1137 97.521 10.6634 98.9812 11.213 100.259C13.2284 101.171 14.6941 102.266 15.9767 103.362Z" fill="#007D8A"/>
<path d="M122.609 55.5427C113.998 54.2651 109.234 48.2421 94.3937 47.6946C85.5993 47.5121 78.0874 49.8848 71.3084 54.9952C65.2623 59.558 57.9336 71.7865 59.2161 75.9844C59.3993 76.3494 59.7658 76.7144 60.3154 76.897C60.6818 77.0795 62.1476 77.627 63.9797 77.627C64.163 77.627 64.5294 77.4445 64.8958 77.262C65.4455 76.897 65.9951 76.5319 66.5448 76.1669C67.2777 75.6194 68.377 74.5243 68.7434 74.1592C70.3923 72.3341 72.2245 69.9614 73.8735 67.9537C74.7895 66.8586 76.0721 65.9461 77.5378 65.216C76.8049 65.0335 76.2553 65.0335 75.5224 64.851C75.3392 64.851 75.3392 64.851 75.156 64.851C75.156 64.851 74.4231 64.6685 74.0567 64.6685L73.3238 64.486C73.3238 64.486 72.4077 64.1209 71.8581 63.9384C71.6749 63.7559 71.4916 63.7559 71.1252 63.5734C70.7588 63.3909 70.3923 63.0258 70.2091 62.6608C70.0259 62.2958 69.6595 61.7482 69.6595 61.3832C69.6595 60.8357 69.6595 60.4706 69.6595 60.1056C69.6595 59.9231 69.6595 59.7406 69.8427 59.3755C69.8427 59.193 70.0259 59.0105 70.2091 58.828C70.3923 58.463 70.7588 58.0979 70.942 57.7329C71.3084 57.3679 71.6749 57.1854 71.8581 57.0028C72.5909 56.6378 73.3238 56.2728 74.0567 56.0903C75.5224 55.5427 76.9881 55.3602 78.4539 55.1777C81.3854 54.8127 84.3168 54.8127 87.0651 54.9952C87.7979 54.9952 88.5308 55.1777 89.2637 55.1777C89.9965 55.3602 90.7294 55.3602 91.4623 55.5427C91.6455 55.5427 91.8287 55.5427 92.0119 55.7252H92.3784C92.5616 55.7252 92.5616 55.7252 92.7448 55.7252C93.1112 55.9078 93.4777 55.9077 93.8441 56.0903L94.9434 56.4553L96.0427 56.6378C97.3252 57.0028 98.7909 57.1854 100.073 57.5504C100.806 57.7329 101.539 57.7329 102.089 57.7329C102.822 57.7329 103.555 57.7329 104.287 57.5504C103.555 57.9154 103.005 58.0979 102.272 58.2804C100.806 57.5504 100.073 57.7329 99.3406 57.7329C97.8749 57.7329 96.4091 57.7329 94.9434 57.5504C94.2105 57.3679 93.4777 57.3679 92.7448 57.1854C92.3784 57.1854 92.0119 57.0028 91.6455 57.0028H91.4623H91.2791C91.0958 57.0028 90.9126 57.0028 90.7294 57.0028C89.9965 56.8203 89.4469 56.8203 88.714 56.8203C87.9812 56.8203 87.2483 56.6378 86.6986 56.6378C86.3322 56.6378 85.9658 56.6378 85.5993 56.6378C85.2329 56.6378 84.8665 56.6378 84.5 56.6378C83.7672 56.6378 83.0343 56.6378 82.4847 56.6378C81.7518 56.6378 81.0189 56.6378 80.4693 56.6378C79.7364 56.6378 79.0035 56.6378 78.4539 56.8203C77.1714 57.0028 75.7056 57.1854 74.4231 57.5504C73.8735 57.7329 73.1406 57.9154 72.5909 58.2804C72.0413 58.6455 71.6749 59.0105 71.3084 59.3755C71.3084 59.5581 71.1252 59.558 71.1252 59.7406C71.1252 59.9231 71.1252 59.9231 70.942 60.1056C70.942 60.2881 70.942 60.6531 70.942 60.8357C70.942 61.0182 71.1252 61.2007 71.1252 61.3832C71.3084 61.5657 71.4916 61.7482 71.6749 61.9307C72.2245 62.2958 72.7742 62.4783 73.3238 62.8433C73.8735 63.0258 74.6063 63.2083 75.3392 63.3909C76.6217 63.7559 78.0874 63.9384 79.5532 63.9384L81.7518 64.1209C81.935 64.1209 81.935 64.1209 82.1182 64.1209C83.9504 64.1209 85.7826 64.3034 87.9812 65.0335H88.1644C88.5308 65.0335 88.8972 65.216 89.2637 65.3985C89.6301 65.581 89.8133 65.581 89.9965 65.7636C92.7448 66.8586 95.8595 68.5013 98.9742 71.0565C111.433 80.3647 129.571 78.5396 137.083 54.6301C134.518 55.5427 131.22 56.8203 122.609 55.5427Z" fill="#91835C"/>
<path d="M22.7561 89.3079C31.3673 90.5855 36.1309 96.6085 50.9715 97.1561C59.7659 97.3386 67.2778 94.9659 74.0568 89.8555C80.1029 85.2926 87.4316 73.0641 86.1491 68.8663C85.9659 68.5012 85.5994 68.1362 85.0498 67.9537C84.6834 67.7712 83.2176 67.2236 81.3855 67.2236C81.2022 67.2236 80.8358 67.4061 80.4694 67.5887C79.9197 67.9537 79.3701 68.3187 78.8204 68.6838C78.0876 69.2313 76.9883 70.3264 76.6218 70.6914C74.9729 72.5166 73.1407 74.8893 71.4918 76.8969C70.5757 77.992 69.2931 78.9046 67.8274 79.6346C68.5603 79.8172 69.1099 79.8172 69.8428 79.9997C70.026 79.9997 70.026 79.9997 70.2092 79.9997C70.2092 79.9997 70.9421 80.1822 71.3085 80.1822L72.0414 80.3647C72.0414 80.3647 72.9575 80.7297 73.5071 80.9122C73.6903 81.0948 73.8736 81.0948 74.24 81.2773C74.6064 81.4598 74.9729 81.8248 75.1561 82.1899C75.3393 82.5549 75.7057 83.1024 75.7057 83.4674C75.7057 84.015 75.7057 84.38 75.7057 84.7451C75.7057 84.9276 75.7057 85.1101 75.5225 85.4751C75.5225 85.6576 75.3393 85.8401 75.1561 86.0227C74.9729 86.3877 74.6064 86.7527 74.4232 87.1177C74.0568 87.4828 73.6903 87.6653 73.5071 87.8478C72.7743 88.2128 72.0414 88.5779 71.3085 88.7604C69.8428 89.3079 68.3771 89.4904 66.9113 89.673C63.9799 90.038 61.0484 90.038 58.3001 89.8555C57.5673 89.8555 56.8344 89.673 56.1015 89.673C55.3687 89.4904 54.6358 89.4904 53.9029 89.3079C53.7197 89.3079 53.5365 89.3079 53.3533 89.1254H52.9868C52.8036 89.1254 52.8036 89.1254 52.6204 89.1254C52.254 88.9429 51.8875 88.9429 51.5211 88.7604L50.4218 88.3954L49.3225 88.2128C48.04 87.8478 46.5743 87.6653 45.2917 87.3003C44.5589 87.1177 43.826 87.1177 43.2764 87.1177C42.5435 87.1177 41.8106 87.1177 41.0778 87.3003C41.8106 86.9352 42.3603 86.7527 43.0931 86.5702C43.826 86.3877 44.5589 86.3877 45.2917 86.3877C46.7575 86.3877 48.2232 86.3877 49.6889 86.5702C50.4218 86.7527 51.1547 86.7527 51.8875 86.9352C52.254 86.9352 52.6204 87.1177 52.9868 87.1177H53.1701H53.3533C53.5365 87.1177 53.7197 87.1177 53.9029 87.1177C54.6358 87.3003 55.1855 87.3003 55.9183 87.3003C56.6512 87.3003 57.3841 87.4828 57.9337 87.4828C58.3001 87.4828 58.6666 87.4828 59.033 87.4828C59.3994 87.4828 59.7659 87.4828 60.1323 87.4828C60.8652 87.4828 61.598 87.4828 62.1477 87.4828C62.8806 87.4828 63.6134 87.4828 64.1631 87.4828C64.8959 87.4828 65.6288 87.4828 66.1785 87.3003C67.461 87.1177 68.9267 86.9352 70.2092 86.5702C70.7589 86.3877 71.4917 86.2052 72.0414 85.8401C72.591 85.4751 72.9575 85.1101 73.3239 84.7451C73.3239 84.5625 73.5071 84.5625 73.5071 84.38C73.5071 84.1975 73.5071 84.1975 73.6903 84.015C73.6903 83.8325 73.6903 83.4675 73.6903 83.2849C73.6903 83.1024 73.5071 82.9199 73.5071 82.7374C73.3239 82.5549 73.1407 82.3724 72.9575 82.1899C72.4078 81.8248 71.8582 81.6423 71.3085 81.2773C70.7589 81.0948 70.026 80.9122 69.2931 80.7297C68.0106 80.3647 66.5449 80.1822 65.0792 80.1822L62.8806 79.9997C62.6973 79.9997 62.6973 79.9997 62.5141 79.9997C60.682 79.9997 58.8498 79.8172 56.6512 79.0871H56.468C56.1015 79.0871 55.7351 78.9046 55.3687 78.7221C55.0022 78.5396 54.819 78.5395 54.6358 78.357C51.8875 77.2619 48.7729 75.6193 45.6582 73.0641C33.1994 63.7559 15.061 65.581 7.54907 89.4904C10.847 89.3079 14.1449 88.0303 22.7561 89.3079Z" fill="#F8E08E"/>
</svg>
