<?xml version="1.0" encoding="utf-8"?>
<!-- Generator: Adobe Illustrator 24.3.0, SVG Export Plug-In . SVG Version: 6.00 Build 0)  -->
<svg version="1.1" id="Capa_1" xmlns="http://www.w3.org/2000/svg" xmlns:xlink="http://www.w3.org/1999/xlink" x="0px" y="0px"
	 viewBox="0 0 179.9 121.2" style="enable-background:new 0 0 179.9 121.2;" xml:space="preserve">
<style type="text/css">
	.st0{fill:#003A70;}
	.st1{fill:#B5B5C6;}
	.st2{fill:#E4E4D7;}
	.st3{fill:#FFFFFF;}
	.st4{fill:#71CC98;}
	.st5{fill:#007D8A;}
	.st6{fill:#91835C;}
	.st7{fill:#F8E08E;}
</style>
<g>
	<g>
		<path class="st0" d="M121.4,16.3C116.8,9.9,110.4,5,103,2.3c-7.5-2.8-16-3-23.7-0.8C72,3.6,65.2,8,60.3,13.9
			c-5.1,6.2-8.1,13.7-8.8,21.7c-0.6,7.9,1.3,16,5.5,22.8C61,65,67,70.3,74,73.5c7.4,3.4,15.8,4.3,23.8,2.7c7.6-1.5,14.7-5.5,20-11.1
			c5.3-5.6,9-12.8,10.2-20.5c0.3-2,0.5-4,0.5-6.1C128.4,30.6,126,22.7,121.4,16.3z"/>
	</g>
	<g>
		<g>
			<g>
				<path class="st4" d="M77.3,36.5c-1-2-1.8-4.1-2.5-6.3c-0.3-1.1-0.7-2.2-1-3.3c0,0,0,0,0,0c0,0-0.1,0-0.1,0.1c0,0,0,0,0,0
					c-0.1,0-0.2,0.1-0.3,0.2c-0.2,0.1-0.4,0.2-0.7,0.4c-1,0.6-1.7,1.2-2.5,2c-1.3,1.4-2.3,3.1-2.5,5c1.2,0,2.4,0.2,3.5,0.5
					c1.6,0.5,3.2,1.2,4.6,2.2c1,0.7,2,1.4,3,2c0.1,0,0.1,0.1,0.2,0.1C78.3,38.5,77.8,37.5,77.3,36.5z"/>
				<path class="st4" d="M60.8,35.3C60.8,35.3,60.8,35.3,60.8,35.3C60.7,35.3,60.7,35.3,60.8,35.3C60.8,35.3,60.8,35.3,60.8,35.3z"
					/>
				<path class="st4" d="M60.7,35.3C60.7,35.3,60.7,35.3,60.7,35.3C60.7,35.2,60.7,35.2,60.7,35.3z"/>
				<path class="st4" d="M69.9,27.2c1-0.8,2.2-1.7,3.5-2.1c-0.6-2.4-1-4.9-1.4-7.4c-1.8,0.7-3.4,1.7-4.8,2.9c-2.9,2.5-5,5.7-6,9.3
					c-0.1,0.4-0.2,0.8-0.3,1.3c0,0.2-0.1,0.4-0.1,0.6c0,0.1,0,0.2,0,0.3c0,0,0,0,0,0c0,0,0,0.1,0,0.1c-0.1,0.8-0.1,1.5-0.1,2.3
					c0,0.2,0,0.4,0,0.5c0,0.1,0,0.1,0,0.2c0,0,0,0,0,0c0,0,0,0.1,0,0.1c0.1,0.3,0.1,0.6,0.2,1c0,0,0,0,0,0c0.1,0,0.1-0.1,0.2-0.1
					c1.4-0.8,3-1.3,4.6-1.5c0-0.9,0.2-1.7,0.5-2.6C67,30.2,68.3,28.5,69.9,27.2z"/>
				<path class="st4" d="M58.8,34c0-3.8,1.4-7.6,3.4-10.6c2.4-3.5,5.7-6.2,9.6-7.7c0,0,0-0.1,0-0.1c-0.2-2.2-0.3-4.4-0.1-6.6
					c0.1-0.8,0.2-1.7,0.3-2.5c-11.2,6.3-18.8,18.2-18.8,32c0,2.2,0.2,4.4,0.6,6.5c1.2-2.9,3-5.6,5.4-7.5
					C58.9,36.4,58.8,35.2,58.8,34z"/>
			</g>
			<g>
				<path class="st5" d="M109.7,9.5c1.7,0.9,3.4,2,4.9,3.2c1.5,1.2,2.8,2.5,4.1,3.9c0.7,0.8,1.4,1.5,2.2,2.3
					C114.5,8.7,103,1.8,89.9,1.8c-5.6,0-10.9,1.2-15.6,3.5C74.2,5.9,74,6.4,73.9,7c0,0.2-0.1,0.5-0.1,0.7c0,0.1,0,0.1,0,0.2
					c0,0,0,0,0,0.1c0,0,0,0.1,0,0.1c0,0.1,0,0.1,0,0.2c-0.1,0.5-0.1,1-0.1,1.5c4.4-2.4,9.3-4,14.3-4.5C95.4,4.5,103.1,6.1,109.7,9.5
					z"/>
				<path class="st5" d="M124.2,25.5C124.3,25.5,124.3,25.5,124.2,25.5c0-0.1,0-0.1-0.1-0.2c-0.3-0.7-0.6-1.5-0.9-2.2
					c-0.8-0.5-1.6-1.1-2.4-1.7c-1.4-1.2-2.7-2.6-3.9-4c-1.3-1.4-2.6-2.7-4.1-3.8c-1.5-1.1-3-2-4.6-2.8c-1.5-0.7-2.8-1.3-4.3-1.8
					c-1.7-0.6-3.4-1-5.2-1.4c-3.9-0.8-7.9-0.9-11.8-0.4c-4.6,0.6-9,2.2-13,4.5c-0.1,0-0.2,0.1-0.2,0.1c0,1.5,0.1,3.1,0.3,4.6
					c0.1,1.2,0.3,2.3,0.5,3.6c0.2,1.2,0.5,2.5,0.7,3.7c0.5,2.4,1.2,4.8,2,7.1c0.2,0.5,0.4,1.1,0.6,1.6c0.1,0.3,0.2,0.5,0.3,0.8
					c0.1,0.1,0.1,0.3,0.2,0.4c0,0,0.1,0.2,0.1,0.3c0.4,0.9,0.8,1.8,1.3,2.7c0.1,0.2,0.2,0.4,0.3,0.6c0-0.1,0-0.2,0-0.3
					c1.4-6.6,8.9-17.9,22.5-17.1c7.6,0.5,16.8,9,21.7,5.8c0.1,0,0.2,0,0.2,0C124.3,25.7,124.3,25.6,124.2,25.5z"/>
			</g>
		</g>
		<g>
			<g>
				<path class="st4" d="M102.5,40.4c1,2,1.8,4.1,2.5,6.3c0.3,1.1,0.7,2.2,1,3.3c0,0,0,0,0,0c0,0,0.1,0,0.1-0.1c0,0,0,0,0,0
					c0.1,0,0.2-0.1,0.3-0.2c0.2-0.1,0.4-0.2,0.7-0.4c1-0.6,1.7-1.2,2.5-2c1.3-1.4,2.3-3.1,2.5-5c-1.2,0-2.4-0.2-3.5-0.5
					c-1.6-0.5-3.2-1.2-4.6-2.2c-1-0.7-2-1.4-3-2c-0.1,0-0.1-0.1-0.2-0.1C101.5,38.5,102.1,39.4,102.5,40.4z"/>
				<path class="st4" d="M119.1,41.6C119.1,41.6,119.1,41.7,119.1,41.6C119.1,41.7,119.1,41.7,119.1,41.6
					C119.1,41.7,119.1,41.6,119.1,41.6z"/>
				<path class="st4" d="M119.1,41.7C119.1,41.7,119.1,41.7,119.1,41.7C119.1,41.7,119.1,41.7,119.1,41.7z"/>
				<path class="st4" d="M110,49.8c-1,0.8-2.2,1.7-3.5,2.1c0.6,2.4,1,4.9,1.4,7.4c1.8-0.7,3.4-1.7,4.8-2.9c2.9-2.5,5-5.7,6-9.3
					c0.1-0.4,0.2-0.8,0.3-1.3c0-0.2,0.1-0.4,0.1-0.6c0-0.1,0-0.2,0-0.3c0,0,0,0,0,0c0,0,0-0.1,0-0.1c0.1-0.8,0.1-1.5,0.1-2.3
					c0-0.2,0-0.4,0-0.5c0-0.1,0-0.1,0-0.2c0,0,0,0,0,0c0,0,0-0.1,0-0.1c-0.1-0.3-0.1-0.6-0.2-1c0,0,0,0,0,0c-0.1,0-0.1,0.1-0.2,0.1
					c-1.4,0.8-3,1.3-4.6,1.5c0,0.9-0.2,1.7-0.5,2.6C112.9,46.7,111.6,48.4,110,49.8z"/>
				<path class="st4" d="M121.1,42.9c0,3.8-1.4,7.6-3.4,10.6c-2.4,3.5-5.7,6.2-9.6,7.7c0,0,0,0.1,0,0.1c0.2,2.2,0.3,4.4,0.1,6.6
					c-0.1,0.8-0.2,1.7-0.3,2.5c11.2-6.3,18.8-18.2,18.8-32c0-2.2-0.2-4.4-0.6-6.5c-1.2,2.9-3,5.6-5.4,7.5
					C121,40.6,121.1,41.8,121.1,42.9z"/>
			</g>
			<g>
				<path class="st5" d="M70.1,67.4c-1.7-0.9-3.4-2-4.9-3.2c-1.5-1.2-2.8-2.5-4.1-3.9c-0.7-0.8-1.4-1.5-2.2-2.3
					c6.5,10.3,17.9,17.1,31,17.1c5.6,0,10.9-1.2,15.6-3.5c0.2-0.5,0.3-1.1,0.4-1.7c0-0.2,0.1-0.5,0.1-0.7c0-0.1,0-0.1,0-0.2
					c0,0,0,0,0-0.1c0,0,0-0.1,0-0.1c0-0.1,0-0.1,0-0.2c0.1-0.5,0.1-1,0.1-1.5c-4.4,2.4-9.3,4-14.3,4.5
					C84.5,72.4,76.8,70.9,70.1,67.4z"/>
				<path class="st5" d="M59,55.4c1.4,1.2,2.7,2.6,3.9,4c1.3,1.4,2.6,2.7,4.1,3.8c1.5,1.1,3,2,4.6,2.8c1.5,0.7,2.8,1.3,4.3,1.8
					c1.7,0.6,3.4,1,5.2,1.4c3.9,0.8,7.9,0.9,11.8,0.4c4.6-0.6,9-2.2,13-4.5c0.1,0,0.2-0.1,0.2-0.1c0-1.5-0.1-3.1-0.3-4.6
					c-0.1-1.2-0.3-2.3-0.5-3.6c-0.2-1.2-0.5-2.5-0.7-3.7c-0.5-2.4-1.2-4.8-2-7.1c-0.2-0.5-0.4-1.1-0.6-1.6c-0.1-0.3-0.2-0.5-0.3-0.8
					c-0.1-0.1-0.1-0.3-0.2-0.4c0,0-0.1-0.2-0.1-0.3c-0.4-0.9-0.8-1.8-1.3-2.7c-0.1-0.2-0.2-0.4-0.3-0.6c0,0.1,0,0.2,0,0.3
					c-1.4,6.6-8.9,17.9-22.5,17.1c-7.6-0.5-16.8-9-21.7-5.8c-0.1,0-0.2,0-0.2,0c0,0.1,0,0.1,0.1,0.2c0,0,0,0-0.1,0
					c0,0,0.1,0.1,0.1,0.1c0.3,0.7,0.6,1.5,0.9,2.2C57.5,54.2,58.2,54.8,59,55.4z"/>
			</g>
		</g>
		<g>
			<path class="st6" d="M117.2,29.2c-4.7-0.7-7.3-4-15.4-4.3c-4.8-0.1-8.9,1.2-12.6,4c-3.3,2.5-7.3,9.2-6.6,11.5
				c0.1,0.2,0.3,0.4,0.6,0.5c0,0,0,0,0,0c0.2,0.1,1,0.4,2,0.4c0.1,0,0.3-0.1,0.5-0.2c0.3-0.2,0.6-0.4,0.9-0.6c0.4-0.3,1-0.9,1.2-1.1
				c0.9-1,1.9-2.3,2.8-3.4c0.5-0.6,1.2-1.1,2-1.5c-0.4-0.1-0.7-0.1-1.1-0.2c-0.1,0-0.1,0-0.2,0c0,0-0.4-0.1-0.6-0.1l-0.4-0.1
				c0,0-0.5-0.2-0.8-0.3c0,0,0,0,0,0c-0.1-0.1-0.2-0.1-0.4-0.2c-0.2-0.1-0.4-0.3-0.5-0.5c-0.1-0.2-0.3-0.5-0.3-0.7
				c0-0.3,0-0.5,0-0.7c0-0.1,0-0.2,0.1-0.4c0-0.1,0.1-0.2,0.2-0.3c0.1-0.2,0.3-0.4,0.4-0.6c0.2-0.2,0.4-0.3,0.5-0.4
				c0.4-0.2,0.8-0.4,1.2-0.5c0.8-0.3,1.6-0.4,2.4-0.5c1.6-0.2,3.2-0.2,4.7-0.1c0.4,0,0.8,0.1,1.2,0.1c0.4,0.1,0.8,0.1,1.2,0.2
				c0.1,0,0.2,0,0.3,0.1l0.2,0c0.1,0,0.1,0,0.2,0c0.2,0.1,0.4,0.1,0.6,0.2l0.6,0.2l0.6,0.1c0.7,0.2,1.5,0.3,2.2,0.5
				c0.4,0.1,0.8,0.1,1.1,0.1c0.4,0,0.8,0,1.2-0.1c-0.4,0.2-0.7,0.3-1.1,0.4c-0.4,0.1-0.8,0.1-1.2,0.1c-0.8,0-1.6,0-2.4-0.1
				c-0.4-0.1-0.8-0.1-1.2-0.2c-0.2,0-0.4-0.1-0.6-0.1l-0.1,0l-0.1,0c-0.1,0-0.2,0-0.3,0c-0.4-0.1-0.7-0.1-1.1-0.1
				c-0.4,0-0.8-0.1-1.1-0.1c-0.2,0-0.4,0-0.6,0c-0.2,0-0.4,0-0.6,0c-0.4,0-0.8,0-1.1,0c-0.4,0-0.8,0-1.1,0c-0.4,0-0.8,0-1.1,0.1
				c-0.7,0.1-1.5,0.2-2.2,0.4c-0.3,0.1-0.7,0.2-1,0.4c-0.3,0.2-0.5,0.4-0.7,0.6c0,0.1-0.1,0.1-0.1,0.2c0,0.1,0,0.1-0.1,0.2
				c0,0.1,0,0.3,0,0.4c0,0.1,0.1,0.2,0.1,0.3c0.1,0.1,0.2,0.2,0.3,0.3c0.3,0.2,0.6,0.3,0.9,0.5c0.3,0.1,0.7,0.2,1.1,0.3
				c0.7,0.2,1.5,0.3,2.3,0.3l1.2,0.1c0.1,0,0.1,0,0.2,0c1,0,2,0.1,3.2,0.5c0,0,0.1,0,0.1,0c0.2,0,0.4,0.1,0.6,0.2
				c0.2,0.1,0.3,0.1,0.4,0.2c1.5,0.6,3.2,1.5,4.9,2.9c6.8,5.1,16.7,4.1,20.8-9C123.7,29.2,121.9,29.9,117.2,29.2z"/>
			<path class="st7" d="M62.7,47.7c4.7,0.7,7.3,4,15.4,4.3c4.8,0.1,8.9-1.2,12.6-4c3.3-2.5,7.3-9.2,6.6-11.5
				c-0.1-0.2-0.3-0.4-0.6-0.5c0,0,0,0,0,0c-0.2-0.1-1-0.4-2-0.4c-0.1,0-0.3,0.1-0.5,0.2c-0.3,0.2-0.6,0.4-0.9,0.6
				c-0.4,0.3-1,0.9-1.2,1.1c-0.9,1-1.9,2.3-2.8,3.4c-0.5,0.6-1.2,1.1-2,1.5c0.4,0.1,0.7,0.1,1.1,0.2c0.1,0,0.1,0,0.2,0
				c0,0,0.4,0.1,0.6,0.1l0.4,0.1c0,0,0.5,0.2,0.8,0.3c0,0,0,0,0,0c0.1,0.1,0.2,0.1,0.4,0.2c0.2,0.1,0.4,0.3,0.5,0.5
				c0.1,0.2,0.3,0.5,0.3,0.7c0,0.3,0,0.5,0,0.7c0,0.1,0,0.2-0.1,0.4c0,0.1-0.1,0.2-0.2,0.3c-0.1,0.2-0.3,0.4-0.4,0.6
				c-0.2,0.2-0.4,0.3-0.5,0.4c-0.4,0.2-0.8,0.4-1.2,0.5c-0.8,0.3-1.6,0.4-2.4,0.5c-1.6,0.2-3.2,0.2-4.7,0.1c-0.4,0-0.8-0.1-1.2-0.1
				c-0.4-0.1-0.8-0.1-1.2-0.2c-0.1,0-0.2,0-0.3-0.1l-0.2,0c-0.1,0-0.1,0-0.2,0c-0.2-0.1-0.4-0.1-0.6-0.2l-0.6-0.2l-0.6-0.1
				c-0.7-0.2-1.5-0.3-2.2-0.5C75,47,74.6,47,74.2,47c-0.4,0-0.8,0-1.2,0.1c0.4-0.2,0.7-0.3,1.1-0.4c0.4-0.1,0.8-0.1,1.2-0.1
				c0.8,0,1.6,0,2.4,0.1c0.4,0.1,0.8,0.1,1.2,0.2c0.2,0,0.4,0.1,0.6,0.1l0.1,0l0.1,0c0.1,0,0.2,0,0.3,0c0.4,0.1,0.7,0.1,1.1,0.1
				c0.4,0,0.8,0.1,1.1,0.1c0.2,0,0.4,0,0.6,0c0.2,0,0.4,0,0.6,0c0.4,0,0.8,0,1.1,0c0.4,0,0.8,0,1.1,0c0.4,0,0.8,0,1.1-0.1
				c0.7-0.1,1.5-0.2,2.2-0.4c0.3-0.1,0.7-0.2,1-0.4c0.3-0.2,0.5-0.4,0.7-0.6c0-0.1,0.1-0.1,0.1-0.2c0-0.1,0-0.1,0.1-0.2
				c0-0.1,0-0.3,0-0.4c0-0.1-0.1-0.2-0.1-0.3c-0.1-0.1-0.2-0.2-0.3-0.3c-0.3-0.2-0.6-0.3-0.9-0.5c-0.3-0.1-0.7-0.2-1.1-0.3
				c-0.7-0.2-1.5-0.3-2.3-0.3l-1.2-0.1c-0.1,0-0.1,0-0.2,0c-1,0-2-0.1-3.2-0.5c0,0-0.1,0-0.1,0c-0.2,0-0.4-0.1-0.6-0.2
				c-0.2-0.1-0.3-0.1-0.4-0.2c-1.5-0.6-3.2-1.5-4.9-2.9c-6.8-5.1-16.7-4.1-20.8,9C56.2,47.7,58,47,62.7,47.7z"/>
		</g>
	</g>
</g>
<g>


</g>
</svg>
